<svg width="18" height="13" viewBox="0 0 18 13" fill="none" xmlns="http://www.w3.org/2000/svg">
<path d="M17.6854 2.04983L7.04536 12.6898C6.95269 12.7828 6.84257 12.8566 6.72133 12.907C6.60008 12.9573 6.47009 12.9832 6.3388 12.9832C6.20752 12.9832 6.07752 12.9573 5.95627 12.907C5.83503 12.8566 5.72491 12.7828 5.63224 12.6898L0.977238 8.03483C0.884451 7.94205 0.810848 7.83189 0.760632 7.71066C0.710416 7.58943 0.68457 7.45949 0.68457 7.32827C0.68457 7.19705 0.710416 7.06711 0.760632 6.94588C0.810848 6.82465 0.884451 6.7145 0.977238 6.62171C1.07003 6.52892 1.18018 6.45532 1.30141 6.4051C1.42264 6.35489 1.55258 6.32904 1.6838 6.32904C1.81502 6.32904 1.94496 6.35489 2.06619 6.4051C2.18742 6.45532 2.29758 6.52892 2.39036 6.62171L6.33963 10.571L16.2739 0.638371C16.4613 0.450979 16.7154 0.345703 16.9805 0.345703C17.2455 0.345703 17.4996 0.450979 17.687 0.638371C17.8744 0.825763 17.9797 1.07992 17.9797 1.34493C17.9797 1.60995 17.8744 1.8641 17.687 2.0515L17.6854 2.04983Z" fill="white"/>
</svg>
