<svg width="19" height="19" viewBox="0 0 19 19" fill="none" xmlns="http://www.w3.org/2000/svg">
<path d="M13.8125 0.15625H5.1875C3.85357 0.157677 2.57468 0.688212 1.63145 1.63145C0.688212 2.57468 0.157677 3.85357 0.15625 5.1875V13.8125C0.157677 15.1464 0.688212 16.4253 1.63145 17.3686C2.57468 18.3118 3.85357 18.8423 5.1875 18.8438H13.8125C15.1464 18.8423 16.4253 18.3118 17.3686 17.3686C18.3118 16.4253 18.8423 15.1464 18.8438 13.8125V5.1875C18.8423 3.85357 18.3118 2.57468 17.3686 1.63145C16.4253 0.688212 15.1464 0.157677 13.8125 0.15625ZM9.5 13.8125C8.64707 13.8125 7.81329 13.5596 7.1041 13.0857C6.39492 12.6118 5.84217 11.9383 5.51577 11.1503C5.18937 10.3623 5.10396 9.49522 5.27036 8.65867C5.43676 7.82213 5.84749 7.05372 6.4506 6.4506C7.05372 5.84749 7.82213 5.43676 8.65867 5.27036C9.49522 5.10396 10.3623 5.18937 11.1503 5.51577C11.9383 5.84217 12.6118 6.39492 13.0857 7.1041C13.5596 7.81329 13.8125 8.64707 13.8125 9.5C13.8113 10.6434 13.3566 11.7396 12.5481 12.5481C11.7396 13.3566 10.6434 13.8113 9.5 13.8125ZM14.8906 5.1875C14.6774 5.1875 14.4689 5.12427 14.2917 5.0058C14.1144 4.88734 13.9762 4.71896 13.8946 4.52196C13.813 4.32495 13.7916 4.10818 13.8332 3.89904C13.8748 3.68991 13.9775 3.4978 14.1283 3.34703C14.2791 3.19625 14.4712 3.09357 14.6803 3.05197C14.8894 3.01037 15.1062 3.03172 15.3032 3.11332C15.5002 3.19492 15.6686 3.3331 15.7871 3.5104C15.9055 3.6877 15.9688 3.89614 15.9688 4.10938C15.9688 4.39531 15.8552 4.66954 15.653 4.87172C15.4508 5.07391 15.1766 5.1875 14.8906 5.1875ZM12.375 9.5C12.375 10.0686 12.2064 10.6245 11.8905 11.0973C11.5746 11.5701 11.1256 11.9386 10.6002 12.1562C10.0749 12.3738 9.49681 12.4307 8.93912 12.3198C8.38142 12.2088 7.86914 11.935 7.46707 11.5329C7.06499 11.1309 6.79117 10.6186 6.68024 10.0609C6.56931 9.50319 6.62624 8.92512 6.84385 8.39979C7.06145 7.87445 7.42994 7.42543 7.90274 7.10953C8.37553 6.79362 8.93138 6.625 9.5 6.625C10.2625 6.625 10.9938 6.9279 11.5329 7.46707C12.0721 8.00624 12.375 8.7375 12.375 9.5Z" fill="white"/>
</svg>
