<svg width="152" height="132" viewBox="0 0 152 132" fill="none" xmlns="http://www.w3.org/2000/svg">
<g id="ph:twitter-logo-fill">
<path id="Vector" d="M145.86 40.0438L128.107 55.461C124.521 91.5651 89.4598 119.625 47.4994 119.625C38.8782 119.625 31.771 118.439 26.3738 116.099C22.0216 114.206 20.2404 112.18 19.7951 111.602C19.398 111.085 19.1406 110.497 19.0422 109.881C18.9438 109.265 19.0068 108.638 19.2266 108.047C19.4464 107.455 19.8173 106.915 20.3116 106.465C20.8059 106.016 21.4107 105.669 22.081 105.451C22.2354 105.399 36.4735 100.65 45.5163 91.6115C40.5014 88.0309 36.1237 83.826 32.5251 79.1334C25.1626 69.6407 16.9213 53.151 19.4626 28.5093C19.5431 27.7263 19.8796 26.9796 20.4325 26.3571C20.9853 25.7346 21.7315 25.2623 22.5831 24.9957C23.4347 24.7292 24.3562 24.6795 25.2393 24.8525C26.1223 25.0255 26.93 25.4141 27.5673 25.9724C27.7751 26.1529 47.3273 43.0396 71.2316 48.5155V45.3754C71.2225 42.0826 71.9722 38.8215 73.4365 35.7841C74.9008 32.7467 77.0501 29.9945 79.7579 27.6894C82.3876 25.409 85.5166 23.609 88.9604 22.3957C92.4041 21.1825 96.0928 20.5805 99.8088 20.6254C104.794 20.6681 109.681 21.8302 113.996 23.9986C118.31 26.1671 121.906 29.2682 124.432 33.0004H142.499C143.439 32.9997 144.359 33.2413 145.14 33.6945C145.922 34.1478 146.532 34.7922 146.891 35.5464C147.251 36.3005 147.345 37.1304 147.162 37.931C146.978 38.7316 146.525 39.4669 145.86 40.0438Z" fill="url(#paint0_linear_470_352)"/>
</g>
<defs>
<linearGradient id="paint0_linear_470_352" x1="30.0001" y1="-7.00018" x2="133.445" y2="18.2448" gradientUnits="userSpaceOnUse">
<stop stop-color="#EEDD47"/>
<stop offset="0.440697" stop-color="#E94362"/>
<stop offset="0.765991" stop-color="#269FF6"/>
<stop offset="1" stop-color="#BD38FC"/>
</linearGradient>
</defs>
</svg>
