<svg width="1440" height="537" viewBox="0 0 1440 537" fill="none" xmlns="http://www.w3.org/2000/svg">
<path fill-rule="evenodd" clip-rule="evenodd" d="M376.933 187.564H408.358V474.928C390.677 451.869 376.933 416.777 376.933 387.528V187.564ZM415.116 187.564H446.542V509.695C434.646 502.178 424.142 493.243 415.116 483.1V187.564ZM453.341 187.564H484.53V359.961C484.53 361.808 484.613 363.611 484.767 365.375V527.293C473.485 523.729 462.997 519.182 453.341 513.751V187.564ZM491.982 388.285C499.036 400.192 510.455 408.571 523.406 413.117V535.203C512.377 534.046 501.894 532.094 491.982 529.409V388.285ZM530.205 415.12C535.386 416.365 540.722 417.031 546.051 417.097C551.288 417.032 556.534 416.391 561.631 415.184V535.834C556.555 536.205 551.37 536.413 546.075 536.447L546.026 536.448C540.638 536.415 535.367 536.193 530.205 535.813V415.12ZM569.145 412.955C582.189 408.271 593.638 399.685 600.571 387.504V529.29C590.661 532.003 580.175 533.976 569.145 535.158V412.955ZM607.37 365.008C607.502 363.362 607.571 361.679 607.571 359.961V245.579H638.795V513.733C629.141 519.168 618.649 523.714 607.37 527.281V365.008ZM646.01 171.32H677.435V482.585C668.423 492.812 657.918 501.826 646.01 509.412V171.32ZM684.234 187.564H715.659V386.68C713.406 420.038 702.601 450.039 684.234 474.276V187.564ZM1306.32 186.131C1302.64 186.131 1298.98 186.245 1295.35 186.47V292.762C1298.93 292.19 1302.59 291.889 1306.32 291.889C1313.44 291.889 1320.32 292.972 1326.78 294.979V187.331C1320.07 186.547 1313.24 186.131 1306.32 186.131ZM1288.14 187.065C1277.34 188.183 1266.84 190.283 1256.72 193.276V312.978C1265.2 304.177 1276 297.631 1288.14 294.318V187.065ZM1249.92 195.44V69.1358L1218.48 69.1581V516.885C1223.15 516.16 1229.03 517.463 1236.68 520.734C1241.05 522.606 1245.46 524.312 1249.9 525.846V400.344C1242.03 389.148 1237.41 375.506 1237.41 360.781C1237.41 346.057 1242.03 332.415 1249.9 321.218V195.44L1249.92 195.44ZM1211.73 97.0122L1180.31 97.0381V531.81H1204.5C1206.51 526.407 1208.81 522.478 1211.73 519.979V97.0122ZM1173.51 11.1808L1142.08 11.2067V531.809H1173.51V11.1808ZM1256.72 528.05C1266.94 531.143 1277.38 533.313 1288.14 534.467V427.247C1276 423.934 1265.2 417.388 1256.72 408.586V528.05ZM1295.35 535.083C1298.97 535.315 1302.62 535.432 1306.32 535.432C1313.24 535.432 1320.07 535.017 1326.78 534.233V426.586C1320.32 428.594 1313.44 429.675 1306.32 429.675C1302.59 429.675 1298.93 429.375 1295.35 428.803V535.083ZM1333.58 533.311C1344.42 531.611 1354.92 528.909 1365 525.314V396.879C1357.61 408.875 1346.64 418.434 1333.58 424.067V533.311ZM1372.52 522.434C1383.61 517.888 1394.13 512.243 1403.94 505.618V215.943C1394.13 209.318 1383.61 203.675 1372.52 199.128V341.658C1374.27 347.73 1375.21 354.146 1375.21 360.782C1375.21 367.419 1374.27 373.835 1372.52 379.906V522.434ZM1410.74 500.787C1422.44 492.05 1432.99 481.873 1442.17 470.533V251.03C1432.99 239.69 1422.44 229.513 1410.74 220.776V500.787ZM1449.38 460.966C1467.99 434.451 1479.4 402.526 1480.81 368.021C1481.1 363.313 1481.02 358.454 1480.81 353.544C1479.4 319.036 1467.99 287.113 1449.38 260.597V460.966ZM1365 196.249C1354.92 192.653 1344.42 189.952 1333.58 188.253V297.497C1346.64 303.131 1357.61 312.689 1365 324.685V196.249ZM333.685 175.251H302.82V146.474H333.685V175.251ZM715.44 173.394H684.168V112.053H715.44V173.394ZM1218.63 44.5996H1249.9V22.5899H1218.63V44.5996ZM1059.53 20.1606H1028.35V0.383179H1059.53V20.1606ZM944.611 186.366C940.984 186.141 937.329 186.026 933.647 186.026C926.723 186.026 919.898 186.442 913.185 187.226V294.874C919.651 292.868 926.523 291.784 933.647 291.784C937.38 291.784 941.041 292.085 944.611 292.656V186.366ZM983.251 193.172C973.129 190.179 962.625 188.078 951.826 186.961V294.214C963.964 297.527 974.767 304.072 983.251 312.873V193.172ZM990.036 122.405L990.05 195.335L990.049 321.113C997.917 332.31 1002.54 345.953 1002.54 360.677C1002.54 375.401 997.917 389.043 990.049 400.24V525.742C994.492 524.207 998.896 522.502 1003.27 520.63C1010.93 517.358 1016.8 516.055 1021.47 516.781V122.428L990.036 122.405ZM1059.66 34.2763L1028.23 34.2507V519.875C1031.16 522.373 1033.46 526.303 1035.47 531.705H1059.66V34.2763ZM1097.88 76.0795L1066.46 76.0536V531.704H1097.88V76.0795ZM951.826 534.362C962.589 533.209 973.028 531.038 983.251 527.945V408.482C974.767 417.283 963.964 423.828 951.826 427.141V534.362ZM933.647 535.328C937.343 535.328 940.996 535.211 944.611 534.979V428.698C941.041 429.27 937.38 429.57 933.647 429.57C926.523 429.57 919.651 428.489 913.185 426.481V534.128C919.898 534.912 926.723 535.328 933.647 535.328ZM874.962 525.21C885.043 528.805 895.547 531.506 906.386 533.205V423.963C893.327 418.33 882.357 408.77 874.962 396.774V525.21ZM836.021 505.514C845.832 512.138 856.356 517.784 867.447 522.329V379.802C865.695 373.731 864.754 367.314 864.754 360.678C864.754 354.042 865.695 347.624 867.447 341.553V199.024C856.356 203.57 845.831 209.214 836.021 215.838V505.514ZM797.797 470.429C806.971 481.768 817.526 491.946 829.222 500.682V220.671C817.526 229.409 806.971 239.585 797.797 250.926V470.429ZM759.157 367.916C760.566 402.421 771.977 434.346 790.582 460.862V260.491C771.976 287.008 760.566 318.932 759.157 353.438C758.927 358.265 758.883 363.09 759.157 367.916ZM906.386 188.149C895.547 189.847 885.043 192.548 874.962 196.144V324.58C882.357 312.584 893.327 303.026 906.386 297.393V188.149ZM-13.6254 461.304V258.281C-30.5236 281.897 -41.6702 309.9 -45.0507 340.249C-46.0757 354.566 -46.5364 363.491 -45.0507 379.336C-41.6702 409.684 -30.5236 437.688 -13.6254 461.304ZM139.647 185.491C135.963 185.258 132.248 185.141 128.506 185.141C121.643 185.141 114.877 185.55 108.222 186.321V293.936C114.634 291.964 121.446 290.899 128.506 290.899C132.299 290.899 136.02 291.21 139.647 291.801V185.491ZM177.872 192.218C167.749 189.241 157.243 187.155 146.446 186.052V293.264C158.568 296.526 169.369 303.009 177.872 311.744V192.218ZM216.512 208.908C206.615 203.123 196.1 198.284 185.087 194.514V320.485C192.846 331.633 197.398 345.18 197.398 359.792C197.398 374.404 192.846 387.95 185.087 399.099V525.071C196.1 521.3 206.616 516.461 216.512 510.676V208.908ZM251.78 236.08C243.138 227.467 233.596 219.756 223.31 213.095V506.846C236.664 502.179 252.719 513.266 254.425 530.82H254.736V238.551L251.78 236.08ZM293.676 186.352H262.251V530.82H293.676V186.352ZM331.552 186.352H300.475V530.82H331.552V186.352ZM146.446 533.53C157.243 532.429 167.749 530.343 177.872 527.365V407.84C169.369 416.575 158.568 423.058 146.446 426.32V533.53ZM128.506 534.442C132.248 534.442 135.962 534.325 139.647 534.092V427.784C136.02 428.375 132.299 428.685 128.506 428.685C121.446 428.685 114.634 427.622 108.222 425.648V533.263C114.877 534.033 121.643 534.442 128.506 534.442ZM70.0376 524.402C80.1198 527.983 90.6248 530.671 101.463 532.356V423.172C88.433 417.607 77.4713 408.138 70.0376 396.238V524.402ZM31.813 505.244C41.635 511.785 52.1548 517.358 63.2388 521.827V381.906C60.8869 374.966 59.612 367.528 59.612 359.792C59.612 352.056 60.8869 344.619 63.2388 337.677V197.757C52.1548 202.225 41.635 207.798 31.813 214.339V505.244ZM-6.82725 470.186C2.36042 481.434 12.9199 491.518 24.598 500.175V219.408C12.9199 228.066 2.36042 238.149 -6.82725 249.396V470.186ZM101.463 187.228C90.6248 188.913 80.1198 191.6 70.0376 195.181V323.344C77.4713 311.445 88.433 301.978 101.463 296.411V187.228Z" fill="url(#paint0_linear_470_23)"/>
<defs>
<linearGradient id="paint0_linear_470_23" x1="40.2016" y1="774.698" x2="1408.02" y2="674.255" gradientUnits="userSpaceOnUse">
<stop stop-color="#EEDD47"/>
<stop offset="0.440697" stop-color="#E94362"/>
<stop offset="0.765991" stop-color="#269FF6"/>
<stop offset="1" stop-color="#BD38FC"/>
</linearGradient>
</defs>
</svg>
