<svg width="1438" height="1415" viewBox="0 0 1438 1415" fill="none" xmlns="http://www.w3.org/2000/svg">
<path fill-rule="evenodd" clip-rule="evenodd" d="M398.281 175.145H427.875V442.778C411.225 421.302 398.281 388.619 398.281 361.379V175.145ZM434.24 175.145H463.833L464 476.5C452.798 469.499 442.5 459.446 434 450L434.24 175.145ZM470.237 175.145H499.608V335.704C499.608 337.424 499.686 339.104 499.83 340.747V491.547C489.206 488.228 479.329 483.993 470.237 478.935V175.145ZM506.625 362.084C513.268 373.173 524.021 380.977 536.217 385.211V498.913C525.832 497.836 515.96 496.019 506.625 493.518V362.084ZM542.62 387.076C547.499 388.236 552.524 388.856 557.543 388.917C562.475 388.857 567.415 388.259 572.214 387.135V499.501C567.435 499.847 562.552 500.041 557.566 500.072L557.519 500.073C552.445 500.042 547.482 499.836 542.62 499.482V387.076ZM579.291 385.06C591.575 380.698 602.356 372.701 608.885 361.356V493.407C599.553 495.934 589.678 497.771 579.291 498.871V385.06ZM615.288 340.405C615.412 338.873 615.477 337.305 615.477 335.704V229.177H644.881V478.918L644.502 479.129C635.508 484.137 625.475 489.724 615 493V451L615.288 340.405ZM651.675 160.016H681.269V449.909C672.782 459.434 662.889 467.828 651.675 474.893V160.016ZM687.672 175.145H717.266L715.991 360.617C713.869 391.685 704.407 419.27 687.11 441.843V257.13L687.672 175.145ZM1273.5 173.811C1270.03 173.811 1266.59 173.917 1263.18 174.126V273.119C1266.54 272.587 1269.99 272.307 1273.5 272.307C1280.21 272.307 1286.68 273.315 1292.77 275.184V174.927C1286.45 174.198 1280.02 173.811 1273.5 173.811ZM1256.38 174.68C1246.21 175.722 1236.32 177.677 1226.79 180.465V291.947C1234.78 283.751 1244.95 277.655 1256.38 274.569V174.68ZM1220.39 182.48V64.8485L1190.78 64.8692V481.853C1195.18 481.178 1200.71 482.392 1207.92 485.438C1212.04 487.182 1216.19 488.771 1220.37 490.199V373.314C1212.96 362.887 1208.61 350.182 1208.61 336.468C1208.61 322.755 1212.96 310.05 1220.37 299.622V182.48L1220.39 182.48ZM1184.43 90.8107L1154.83 90.8348V495.753H1177.61C1179.5 490.722 1181.67 487.062 1184.43 484.735V90.8107ZM1148.43 10.8729L1118.84 10.897V495.753H1149L1148.43 10.8729ZM1227 492.5C1236.63 495.38 1246.86 497.727 1257 498.802L1256.38 398.37C1244.95 395.284 1234.78 389.188 1226.79 380.99L1227 492.5ZM1263.18 498.802C1266.58 499.018 1270.02 499.127 1273.5 499.127C1280.02 499.127 1286.45 498.74 1292.77 498.01V397.755C1286.68 399.625 1280.21 400.632 1273.5 400.632C1269.99 400.632 1266.54 400.352 1263.18 399.819V498.802ZM1299.17 497.151C1309.38 495.568 1318.4 493.547 1327.89 490.199L1328.77 370.088C1321.8 381.26 1311.47 390.162 1299.17 395.409V497.151ZM1335.84 487.022C1346.29 482.787 1356.2 477.53 1365.44 471.36V201.575C1356.2 195.405 1346.29 190.149 1335.84 185.915V318.658C1337.49 324.313 1338.38 330.288 1338.38 336.469C1338.38 342.651 1337.49 348.626 1335.84 354.28V487.022ZM1371.84 466.86C1382.85 458.723 1392.79 449.245 1401.43 438.684V234.253C1392.79 223.692 1382.85 214.213 1371.84 206.076V466.86ZM1408.23 429.774C1425.75 405.079 1436.49 375.347 1437.82 343.211C1438.1 338.826 1438.02 334.301 1437.82 329.728C1436.49 297.59 1425.75 267.858 1408.23 243.163V429.774ZM1328.77 183.233C1319.27 179.884 1309.38 177.369 1299.17 175.787V277.53C1311.47 282.776 1321.8 291.678 1328.77 302.851V183.233ZM357.555 163.678H328.49V136.877H357.555V163.678ZM717.061 161.948H687.612V104.819H717.061V161.948ZM1190.92 41.9972H1220.37V21.4987H1190.92V41.9972ZM1041.1 19.2365H1011.73V0.817047H1041.1V19.2365ZM932.874 174.029C929.459 173.819 926.017 173.713 922.549 173.713C916.029 173.713 909.602 174.1 903.281 174.83V275.087C909.369 273.218 915.841 272.209 922.549 272.209C926.065 272.209 929.512 272.489 932.874 273.021V174.029ZM969.262 180.368C959.73 177.58 949.838 175.624 939.669 174.584V274.472C951.099 277.557 961.273 283.653 969.262 291.849V180.368ZM975.652 114.46L975.665 182.382L975.664 299.524C983.074 309.952 987.426 322.659 987.426 336.372C987.426 350.084 983.074 362.79 975.664 373.218V490.102C979.848 488.673 983.996 487.085 988.118 485.341C995.324 482.294 1000.86 481.08 1005.26 481.756V114.481L975.652 114.46ZM1041.22 32.3827L1011.62 32.3588V485.341C1014.38 487.668 1016.55 490.625 1018.44 495.656H1041.22V32.3827ZM1077.21 71.3154L1047.62 71.2914V495.654H1077.21V71.3154ZM939 498.705C949.136 497.631 959.635 495.034 969.262 492.154V380.894C961.273 389.091 950.43 395.915 939 399V498.705ZM922.549 499.03C926.03 499.03 929.47 498.921 932.874 498.705V399.722C929.512 400.255 926.065 400.534 922.549 400.534C915.841 400.534 909.369 399.527 903.281 397.657V497.912C909.602 498.643 916.029 499.03 922.549 499.03ZM867.612 491.782C877.106 495.13 886.285 496.818 896.493 498.4L896.878 395.312C884.579 390.065 874.249 381.162 867.285 369.99L867.612 491.782ZM830.614 471.263C839.853 477.432 849.763 482.69 860.208 486.924V354.183C858.558 348.529 857.672 342.553 857.672 336.372C857.672 330.191 858.558 324.215 860.208 318.56V185.818C849.763 190.052 839.852 195.308 830.614 201.478V471.263ZM794.617 438.587C803.256 449.148 813.197 458.627 824.211 466.763V205.979C813.197 214.116 803.256 223.594 794.617 234.156V438.587ZM758.23 343.113C759.556 375.249 770.302 404.982 787.823 429.677V243.065C770.301 267.761 759.556 297.493 758.23 329.63C758.013 334.125 757.971 338.619 758.23 343.113ZM896.878 175.69C886.67 177.271 876.778 179.787 867.285 183.135V302.753C874.249 291.581 884.579 282.679 896.878 277.432V175.69ZM30.4876 430.414V241.332C14.5744 263.326 4.07745 289.407 0.893975 317.671C-0.0712725 331.005 -0.505131 339.318 0.893975 354.074C4.07745 382.339 14.5744 408.42 30.4876 430.414ZM174.827 173.54C171.357 173.323 167.859 173.214 164.335 173.214C157.872 173.214 151.5 173.594 145.233 174.312V274.539C151.272 272.702 157.687 271.71 164.335 271.71C167.907 271.71 171.411 271.999 174.827 272.55V173.54ZM210.824 179.805C201.291 177.032 191.397 175.089 181.23 174.062V273.913C192.645 276.951 202.817 282.989 210.824 291.124V179.805ZM247.212 195.349C237.891 189.961 227.989 185.454 217.618 181.943V299.264C224.925 309.647 229.212 322.263 229.212 335.872C229.212 349.481 224.925 362.097 217.618 372.48L217.806 489.701C228.177 486.189 237.367 481.25 246.686 475.862L247.212 195.349ZM280.424 220.655C272.286 212.633 263.3 205.452 253.614 199.248V472.829C266.189 468.483 281.308 478.808 282.914 495.157H283.207V222.957L280.424 220.655ZM319.878 174.342H290.285V495.157H319.878V174.342ZM355.546 174.342H326.281L326.709 495.157H355.546V174.342ZM181.23 497.681C191.397 496.655 201.291 494.712 210.824 491.939V380.622C202.817 388.757 192.645 394.795 181.23 397.832V497.681ZM164.335 498.531C167.859 498.531 171.357 498.422 174.827 498.205V399.195C171.411 399.746 167.907 400.035 164.335 400.035C157.687 400.035 151.272 399.045 145.233 397.207V497.432C151.5 498.149 157.872 498.531 164.335 498.531ZM109.274 489.18C118.769 492.514 128.662 495.018 138.868 496.587V394.901C126.598 389.717 116.275 380.899 109.274 369.816V489.18ZM73.2777 471.337C82.5272 477.429 92.4339 482.619 102.872 486.781V356.468C100.657 350.004 99.4564 343.077 99.4564 335.872C99.4564 328.668 100.657 321.741 102.872 315.276V184.963C92.4339 189.125 82.5272 194.315 73.2777 200.407V471.337ZM36.8896 438.687C45.5417 449.162 55.4858 458.554 66.4832 466.616V205.128C55.4858 213.192 45.5417 222.582 36.8896 233.057V438.687ZM138.868 175.157C128.662 176.727 118.769 179.229 109.274 182.564V301.927C116.275 290.845 126.598 282.028 138.868 276.844V175.157Z" fill="url(#paint0_linear_820_23)"/>
<path d="M290.007 457.946C290.003 455.871 291.28 454.009 293.217 453.267L313.21 445.603C316.485 444.348 320 446.765 320 450.271V744C320 746.761 317.761 749 315 749H295.602C292.844 749 290.608 746.768 290.602 744.01L290.007 457.946Z" fill="url(#paint1_linear_820_23)"/>
<rect x="687" y="295" width="30" height="190" fill="url(#paint2_linear_820_23)"/>
<rect x="1119" y="438" width="30" height="453" rx="5" fill="url(#paint3_linear_820_23)"/>
<path d="M939 427C939 424.239 941.239 422 944 422H964C966.761 422 969 424.239 969 427V909C969 911.761 966.761 914 964 914H944C941.239 914 939 911.761 939 909V427Z" fill="url(#paint4_linear_820_23)"/>
<rect x="687" y="495" width="30" height="45" rx="5" fill="#289FF7"/>
<path d="M1227.04 489.903C1227.02 487.192 1229.16 484.957 1231.87 484.864L1251.83 484.178C1254.66 484.081 1257 486.346 1257 489.175V697C1257 699.761 1254.76 702 1252 702H1233.79C1231.05 702 1228.82 699.787 1228.79 697.042L1227.04 489.903Z" fill="url(#paint5_linear_820_23)"/>
<path d="M615 461.372C615 459.594 615.945 457.949 617.481 457.053L637.481 445.386C640.814 443.442 645 445.846 645 449.705L645 664.5C645 667.261 642.761 669.5 640 669.5H620C617.239 669.5 615 667.261 615 664.5L615 461.372Z" fill="url(#paint6_linear_820_23)"/>
<path d="M434 448.622C434 445.986 436.047 443.802 438.678 443.633L458.678 442.343C461.56 442.157 464 444.445 464 447.333V1409.5C464 1412.26 461.761 1414.5 459 1414.5H439C436.239 1414.5 434 1412.26 434 1409.5V448.622Z" fill="url(#paint7_linear_820_23)"/>
<defs>
<linearGradient id="paint0_linear_820_23" x1="88.0505" y1="445.638" x2="1103.2" y2="563.902" gradientUnits="userSpaceOnUse">
<stop stop-color="#EEDD47"/>
<stop offset="0.197196" stop-color="#FF8B2B"/>
<stop offset="0.440697" stop-color="#E94362"/>
<stop offset="0.765991" stop-color="#269FF6"/>
<stop offset="1" stop-color="#BD38FC"/>
</linearGradient>
<linearGradient id="paint1_linear_820_23" x1="301.02" y1="446" x2="303.879" y2="749.013" gradientUnits="userSpaceOnUse">
<stop stop-color="#FF8D2D"/>
<stop offset="0.519029" stop-color="#BE39FC"/>
<stop offset="1" stop-color="#BE39FC" stop-opacity="0"/>
</linearGradient>
<linearGradient id="paint2_linear_820_23" x1="702" y1="383" x2="702" y2="485" gradientUnits="userSpaceOnUse">
<stop stop-color="#936CA4"/>
<stop offset="0.519029" stop-color="#986CA2"/>
<stop offset="1" stop-color="#289FF7"/>
</linearGradient>
<linearGradient id="paint3_linear_820_23" x1="1134" y1="438" x2="1134" y2="891" gradientUnits="userSpaceOnUse">
<stop stop-color="#BE39FC"/>
<stop offset="0.519029" stop-color="#3B91F8"/>
<stop offset="1" stop-color="#4689F8" stop-opacity="0"/>
</linearGradient>
<linearGradient id="paint4_linear_820_23" x1="954" y1="422.238" x2="951.243" y2="970.792" gradientUnits="userSpaceOnUse">
<stop stop-color="#5B7CF9"/>
<stop offset="0.156122" stop-color="#BE39FC"/>
<stop offset="0.293924" stop-color="#BE39FC" stop-opacity="0.19"/>
<stop offset="0.464746" stop-color="#D77C9B" stop-opacity="0"/>
</linearGradient>
<linearGradient id="paint5_linear_820_23" x1="1242.92" y1="484" x2="1242.92" y2="702" gradientUnits="userSpaceOnUse">
<stop stop-color="#BE39FC"/>
<stop offset="0.307622" stop-color="#9455FB"/>
<stop offset="0.519029" stop-color="#3198F7"/>
<stop offset="1" stop-color="#468AF8"/>
</linearGradient>
<linearGradient id="paint6_linear_820_23" x1="617.437" y1="458.5" x2="629.494" y2="669.529" gradientUnits="userSpaceOnUse">
<stop stop-color="#B25D8C"/>
<stop offset="0.519029" stop-color="#BE39FC"/>
<stop offset="1" stop-color="#BE39FC"/>
</linearGradient>
<linearGradient id="paint7_linear_820_23" x1="448" y1="455.541" x2="448.351" y2="1414.5" gradientUnits="userSpaceOnUse">
<stop stop-color="#F25F4E"/>
<stop offset="0.187438" stop-color="#F3614C"/>
<stop offset="0.294704" stop-color="#4F8CD9" stop-opacity="0"/>
<stop offset="0.658814" stop-color="#269DF3" stop-opacity="0"/>
</linearGradient>
</defs>
</svg>
