<svg width="1438" height="914" viewBox="0 0 1438 914" fill="none" xmlns="http://www.w3.org/2000/svg">
<path fill-rule="evenodd" clip-rule="evenodd" d="M398.281 174.328H427.875V441.961C411.225 420.485 398.281 387.802 398.281 360.562V174.328ZM434.24 174.328H463.833L464 475.683C452.798 468.682 442.5 458.629 434 449.183L434.24 174.328ZM470.237 174.328H499.608V334.888C499.608 336.608 499.686 338.287 499.83 339.93V490.73C489.206 487.411 479.329 483.176 470.237 478.118V174.328ZM506.625 361.267C513.268 372.356 524.021 380.16 536.217 384.394V498.097C525.832 497.019 515.96 495.202 506.625 492.701V361.267ZM542.62 386.259C547.499 387.419 552.524 388.039 557.543 388.1C562.475 388.04 567.415 387.443 572.214 386.318V498.684C567.435 499.03 562.552 499.224 557.566 499.255L557.519 499.256C552.445 499.225 547.482 499.019 542.62 498.665V386.259ZM579.291 384.243C591.575 379.881 602.356 371.884 608.885 360.539V492.59C599.553 495.117 589.678 496.954 579.291 498.055V384.243ZM615.288 339.588C615.412 338.056 615.477 336.488 615.477 334.888V228.36H644.881V478.101L644.502 478.312C635.508 483.32 625.475 488.907 615 492.183V450.183L615.288 339.588ZM651.675 159.2H681.269V449.092C672.782 458.617 662.889 467.011 651.675 474.076V159.2ZM687.672 174.328H717.266L715.991 359.801C713.869 390.868 704.407 418.453 687.11 441.026V256.313L687.672 174.328ZM1273.5 172.994C1270.03 172.994 1266.59 173.1 1263.18 173.309V272.303C1266.54 271.77 1269.99 271.49 1273.5 271.49C1280.21 271.49 1286.68 272.498 1292.77 274.367V174.111C1286.45 173.381 1280.02 172.994 1273.5 172.994ZM1256.38 173.864C1246.21 174.905 1236.32 176.86 1226.79 179.648V291.13C1234.78 282.934 1244.95 276.838 1256.38 273.752V173.864ZM1220.39 181.663V64.0316L1190.78 64.0523V481.036C1195.18 480.361 1200.71 481.575 1207.92 484.621C1212.04 486.365 1216.19 487.954 1220.37 489.382V372.497C1212.96 362.071 1208.61 349.365 1208.61 335.651C1208.61 321.938 1212.96 309.233 1220.37 298.805V181.663L1220.39 181.663ZM1184.43 89.9938L1154.83 90.0179V494.936H1177.61C1179.5 489.905 1181.67 486.245 1184.43 483.918V89.9938ZM1148.43 10.056L1118.84 10.0801V494.936H1149L1148.43 10.056ZM1227 491.683C1236.63 494.564 1246.86 496.91 1257 497.985L1256.38 397.553C1244.95 394.467 1234.78 388.371 1226.79 380.174L1227 491.683ZM1263.18 497.985C1266.58 498.201 1270.02 498.31 1273.5 498.31C1280.02 498.31 1286.45 497.923 1292.77 497.193V396.938C1286.68 398.808 1280.21 399.815 1273.5 399.815C1269.99 399.815 1266.54 399.535 1263.18 399.002V497.985ZM1299.17 496.334C1309.38 494.751 1318.4 492.73 1327.89 489.382L1328.77 369.271C1321.8 380.443 1311.47 389.345 1299.17 394.592V496.334ZM1335.84 486.205C1346.29 481.97 1356.2 476.713 1365.44 470.543V200.758C1356.2 194.588 1346.29 189.333 1335.84 185.098V317.841C1337.49 323.496 1338.38 329.471 1338.38 335.652C1338.38 341.834 1337.49 347.809 1335.84 353.463V486.205ZM1371.84 466.044C1382.85 457.906 1392.79 448.428 1401.43 437.867V233.436C1392.79 222.875 1382.85 213.397 1371.84 205.259V466.044ZM1408.23 428.957C1425.75 404.262 1436.49 374.53 1437.82 342.394C1438.1 338.009 1438.02 333.484 1437.82 328.911C1436.49 296.773 1425.75 267.041 1408.23 242.346V428.957ZM1328.77 182.417C1319.27 179.067 1309.38 176.552 1299.17 174.97V276.713C1311.47 281.959 1321.8 290.861 1328.77 302.034V182.417ZM357.555 162.861H328.49V136.06H357.555V162.861ZM717.061 161.131H687.612V104.003H717.061V161.131ZM1190.92 41.1803H1220.37V20.6818H1190.92V41.1803ZM1041.1 18.4196H1011.73V0.000152588H1041.1V18.4196ZM932.874 173.212C929.459 173.003 926.017 172.896 922.549 172.896C916.029 172.896 909.602 173.283 903.281 174.013V274.27C909.369 272.401 915.841 271.392 922.549 271.392C926.065 271.392 929.512 271.672 932.874 272.204V173.212ZM969.262 179.551C959.73 176.763 949.838 174.807 939.669 173.767V273.655C951.099 276.741 961.273 282.836 969.262 291.033V179.551ZM975.652 113.644L975.665 181.565L975.664 298.707C983.074 309.135 987.426 321.842 987.426 335.555C987.426 349.267 983.074 361.973 975.664 372.401V489.285C979.848 487.856 983.996 486.268 988.118 484.524C995.324 481.477 1000.86 480.263 1005.26 480.94V113.664L975.652 113.644ZM1041.22 31.5658L1011.62 31.5419V484.524C1014.38 486.851 1016.55 489.808 1018.44 494.839H1041.22V31.5658ZM1077.21 70.4985L1047.62 70.4745V494.838H1077.21V70.4985ZM939 497.888C949.136 496.814 959.635 494.217 969.262 491.337V380.077C961.273 388.274 950.43 395.098 939 398.183V497.888ZM922.549 498.213C926.03 498.213 929.47 498.104 932.874 497.888V398.905C929.512 399.438 926.065 399.717 922.549 399.717C915.841 399.717 909.369 398.71 903.281 396.84V497.095C909.602 497.826 916.029 498.213 922.549 498.213ZM867.612 490.965C877.106 494.313 886.285 496.001 896.493 497.584L896.878 394.495C884.579 389.248 874.249 380.345 867.285 369.173L867.612 490.965ZM830.614 470.446C839.853 476.615 849.763 481.873 860.208 486.107V353.366C858.558 347.712 857.672 341.736 857.672 335.555C857.672 329.374 858.558 323.398 860.208 317.743V185.001C849.763 189.235 839.852 194.491 830.614 200.661V470.446ZM794.617 437.77C803.256 448.331 813.197 457.81 824.211 465.946V205.162C813.197 213.299 803.256 222.777 794.617 233.339V437.77ZM758.23 342.296C759.556 374.432 770.302 404.165 787.823 428.86V242.248C770.301 266.944 759.556 296.676 758.23 328.813C758.013 333.308 757.971 337.802 758.23 342.296ZM896.878 174.873C886.67 176.454 876.778 178.97 867.285 182.319V301.936C874.249 290.764 884.579 281.862 896.878 276.615V174.873ZM30.4876 429.597V240.515C14.5744 262.509 4.07745 288.59 0.893975 316.854C-0.0712725 330.188 -0.505131 338.501 0.893975 353.258C4.07745 381.522 14.5744 407.603 30.4876 429.597ZM174.827 172.723C171.357 172.506 167.859 172.397 164.335 172.397C157.872 172.397 151.5 172.777 145.233 173.496V273.722C151.272 271.885 157.687 270.893 164.335 270.893C167.907 270.893 171.411 271.182 174.827 271.733V172.723ZM210.824 178.988C201.291 176.215 191.397 174.272 181.23 173.245V273.096C192.645 276.134 202.817 282.172 210.824 290.307V178.988ZM247.212 194.532C237.891 189.144 227.989 184.638 217.618 181.126V298.447C224.925 308.83 229.212 321.447 229.212 335.056C229.212 348.664 224.925 361.28 217.618 371.663L217.806 488.884C228.177 485.372 237.367 480.433 246.686 475.046L247.212 194.532ZM280.424 219.838C272.286 211.816 263.3 204.635 253.614 198.431V472.012C266.189 467.666 281.308 477.991 282.914 494.34H283.207V222.14L280.424 219.838ZM319.878 173.525H290.285V494.34H319.878V173.525ZM355.546 173.525H326.281L326.709 494.34H355.546V173.525ZM181.23 496.864C191.397 495.838 201.291 493.895 210.824 491.122V379.805C202.817 387.94 192.645 393.978 181.23 397.016V496.864ZM164.335 497.714C167.859 497.714 171.357 497.605 174.827 497.388V398.379C171.411 398.93 167.907 399.219 164.335 399.219C157.687 399.219 151.272 398.228 145.233 396.39V496.615C151.5 497.332 157.872 497.714 164.335 497.714ZM109.274 488.363C118.769 491.697 128.662 494.201 138.868 495.77V394.084C126.598 388.9 116.275 380.082 109.274 368.999V488.363ZM73.2777 470.521C82.5272 476.612 92.4339 481.802 102.872 485.964V355.651C100.657 349.187 99.4564 342.261 99.4564 335.056C99.4564 327.851 100.657 320.924 102.872 314.459V184.146C92.4339 188.308 82.5272 193.498 73.2777 199.59V470.521ZM36.8896 437.87C45.5417 448.345 55.4858 457.737 66.4832 465.799V204.311C55.4858 212.375 45.5417 221.765 36.8896 232.24V437.87ZM138.868 174.34C128.662 175.91 118.769 178.412 109.274 181.748V301.11C116.275 290.028 126.598 281.211 138.868 276.027V174.34Z" fill="url(#paint0_linear_809_15)"/>
<path d="M290.007 457.129C290.003 455.054 291.28 453.192 293.217 452.45L313.21 444.786C316.485 443.531 320 445.948 320 449.455V743.183C320 745.945 317.761 748.183 315 748.183H295.602C292.844 748.183 290.608 745.951 290.602 743.193L290.007 457.129Z" fill="url(#paint1_linear_809_15)"/>
<rect x="687" y="294.183" width="30" height="190" fill="url(#paint2_linear_809_15)"/>
<rect x="1119" y="437.183" width="30" height="453" rx="5" fill="url(#paint3_linear_809_15)"/>
<path d="M939 426.183C939 423.422 941.239 421.183 944 421.183H964C966.761 421.183 969 423.422 969 426.183V908.183C969 910.945 966.761 913.183 964 913.183H944C941.239 913.183 939 910.945 939 908.183V426.183Z" fill="url(#paint4_linear_809_15)"/>
<rect x="687" y="494.183" width="30" height="45" rx="5" fill="#289FF7"/>
<path d="M1227.04 489.086C1227.02 486.375 1229.16 484.14 1231.87 484.047L1251.83 483.361C1254.66 483.264 1257 485.529 1257 488.358V696.183C1257 698.945 1254.76 701.183 1252 701.183H1233.79C1231.05 701.183 1228.82 698.97 1228.79 696.225L1227.04 489.086Z" fill="url(#paint5_linear_809_15)"/>
<path d="M615 460.555C615 458.777 615.945 457.132 617.481 456.236L637.481 444.569C640.814 442.625 645 445.029 645 448.888L645 663.683C645 666.445 642.761 668.683 640 668.683H620C617.239 668.683 615 666.445 615 663.683L615 460.555Z" fill="url(#paint6_linear_809_15)"/>
<path d="M434 446.615C434 443.887 436.186 441.662 438.914 441.615L458.914 441.271C461.709 441.223 464 443.475 464 446.27V696C464 698.761 461.761 701 459 701H439C436.239 701 434 698.761 434 696V446.615Z" fill="url(#paint7_linear_809_15)"/>
<defs>
<linearGradient id="paint0_linear_809_15" x1="88.0505" y1="444.821" x2="1103.2" y2="563.085" gradientUnits="userSpaceOnUse">
<stop stop-color="#EEDD47"/>
<stop offset="0.197196" stop-color="#FF8B2B"/>
<stop offset="0.440697" stop-color="#E94362"/>
<stop offset="0.765991" stop-color="#269FF6"/>
<stop offset="1" stop-color="#BD38FC"/>
</linearGradient>
<linearGradient id="paint1_linear_809_15" x1="301.02" y1="445.183" x2="303.879" y2="748.197" gradientUnits="userSpaceOnUse">
<stop stop-color="#FF8D2D"/>
<stop offset="0.519029" stop-color="#BE39FC"/>
<stop offset="1" stop-color="#BE39FC" stop-opacity="0"/>
</linearGradient>
<linearGradient id="paint2_linear_809_15" x1="702" y1="382.183" x2="702" y2="484.183" gradientUnits="userSpaceOnUse">
<stop stop-color="#936CA4"/>
<stop offset="0.519029" stop-color="#986CA2"/>
<stop offset="1" stop-color="#289FF7"/>
</linearGradient>
<linearGradient id="paint3_linear_809_15" x1="1134" y1="437.183" x2="1134" y2="890.183" gradientUnits="userSpaceOnUse">
<stop stop-color="#BE39FC"/>
<stop offset="0.519029" stop-color="#3B91F8"/>
<stop offset="1" stop-color="#4689F8" stop-opacity="0"/>
</linearGradient>
<linearGradient id="paint4_linear_809_15" x1="954" y1="421.421" x2="951.243" y2="969.975" gradientUnits="userSpaceOnUse">
<stop stop-color="#5B7CF9"/>
<stop offset="0.156122" stop-color="#BE39FC"/>
<stop offset="0.295893" stop-color="#BE39FC" stop-opacity="0.354735"/>
<stop offset="0.401042" stop-color="#BE39FC" stop-opacity="0.19"/>
<stop offset="0.708333" stop-color="#D77C9B" stop-opacity="0"/>
</linearGradient>
<linearGradient id="paint5_linear_809_15" x1="1242.92" y1="483.183" x2="1242.92" y2="701.183" gradientUnits="userSpaceOnUse">
<stop stop-color="#BE39FC"/>
<stop offset="0.307622" stop-color="#9455FB"/>
<stop offset="0.519029" stop-color="#3198F7"/>
<stop offset="1" stop-color="#468AF8"/>
</linearGradient>
<linearGradient id="paint6_linear_809_15" x1="617.437" y1="457.683" x2="629.494" y2="668.712" gradientUnits="userSpaceOnUse">
<stop stop-color="#B25D8C"/>
<stop offset="0.519029" stop-color="#BE39FC"/>
<stop offset="1" stop-color="#BE39FC"/>
</linearGradient>
<linearGradient id="paint7_linear_809_15" x1="448" y1="444.801" x2="448.025" y2="701" gradientUnits="userSpaceOnUse">
<stop stop-color="#F25F4E"/>
<stop offset="0.187438" stop-color="#F3614C"/>
<stop offset="0.822917" stop-color="#4F8CD9" stop-opacity="0"/>
<stop offset="1" stop-color="#269DF3" stop-opacity="0"/>
</linearGradient>
</defs>
</svg>
