<svg width="1527" height="537" viewBox="0 0 1527 537" fill="none" xmlns="http://www.w3.org/2000/svg">
<path fill-rule="evenodd" clip-rule="evenodd" d="M422.933 187.18H454.358V474.545C436.677 451.486 422.933 416.393 422.933 387.144V187.18ZM461.116 187.18H492.542V509.311C480.646 501.794 470.142 492.859 461.116 482.717V187.18ZM499.341 187.18H530.53V359.577C530.53 361.424 530.613 363.228 530.767 364.991V526.909C519.485 523.345 508.997 518.799 499.341 513.368V187.18ZM537.982 387.902C545.036 399.809 556.455 408.188 569.406 412.734V534.819C558.377 533.663 547.894 531.711 537.982 529.026V387.902ZM576.205 414.737C581.386 415.982 586.722 416.647 592.051 416.713C597.288 416.648 602.534 416.007 607.631 414.8V535.45C602.555 535.821 597.37 536.03 592.075 536.063L592.026 536.064C586.638 536.031 581.367 535.809 576.205 535.429V414.737ZM615.145 412.572C628.189 407.888 639.638 399.301 646.571 387.12V528.907C636.661 531.62 626.175 533.592 615.145 534.774V412.572ZM653.37 364.625C653.502 362.979 653.571 361.296 653.571 359.577V245.196H684.795V513.349C675.141 518.784 664.649 523.331 653.37 526.898V364.625ZM692.01 170.936H723.435V482.202C714.423 492.429 703.918 501.442 692.01 509.028V170.936ZM730.234 187.18H761.659V386.296C759.406 419.654 748.601 449.655 730.234 473.893V187.18ZM1352.32 185.748C1348.64 185.748 1344.98 185.862 1341.35 186.086V292.378C1344.93 291.807 1348.59 291.506 1352.32 291.506C1359.44 291.506 1366.32 292.588 1372.78 294.595V186.947C1366.07 186.163 1359.24 185.748 1352.32 185.748ZM1334.14 186.682C1323.34 187.8 1312.84 189.9 1302.72 192.893V312.594C1311.2 303.793 1322 297.248 1334.14 293.935V186.682ZM1295.92 195.057V68.7523L1264.48 68.7745V516.501C1269.15 515.776 1275.03 517.079 1282.68 520.35C1287.05 522.223 1291.46 523.929 1295.9 525.462V399.96C1288.03 388.765 1283.41 375.123 1283.41 360.398C1283.41 345.674 1288.03 332.031 1295.9 320.835V195.056L1295.92 195.057ZM1257.73 96.6286L1226.31 96.6545V531.426H1250.5C1252.51 526.024 1254.81 522.094 1257.73 519.595V96.6286ZM1219.51 10.7972L1188.08 10.8231V531.425H1219.51V10.7972ZM1302.72 527.666C1312.94 530.759 1323.38 532.929 1334.14 534.084V426.863C1322 423.55 1311.2 417.004 1302.72 408.202V527.666ZM1341.35 534.7C1344.97 534.932 1348.62 535.049 1352.32 535.049C1359.24 535.049 1366.07 534.633 1372.78 533.85V426.202C1366.32 428.21 1359.44 429.292 1352.32 429.292C1348.59 429.292 1344.93 428.991 1341.35 428.419V534.7ZM1379.58 532.927C1390.42 531.227 1400.92 528.526 1411 524.931V396.496C1403.61 408.492 1392.64 418.05 1379.58 423.684V532.927ZM1418.52 522.051C1429.61 517.504 1440.13 511.859 1449.94 505.235V215.559C1440.13 208.934 1429.61 203.291 1418.52 198.745V341.274C1420.27 347.346 1421.21 353.762 1421.21 360.398C1421.21 367.036 1420.27 373.452 1418.52 379.523V522.051ZM1456.74 500.403C1468.44 491.666 1478.99 481.489 1488.17 470.149V250.646C1478.99 239.306 1468.44 229.129 1456.74 220.392V500.403ZM1495.38 460.582C1513.99 434.067 1525.4 402.143 1526.81 367.637C1527.1 362.93 1527.02 358.071 1526.81 353.16C1525.4 318.653 1513.99 286.729 1495.38 260.213V460.582ZM1411 195.865C1400.92 192.269 1390.42 189.568 1379.58 187.87V297.114C1392.64 302.747 1403.61 312.305 1411 324.302V195.865ZM379.685 174.868H348.82V146.091H379.685V174.868ZM761.44 173.01H730.168V111.67H761.44V173.01ZM1264.63 44.2161H1295.9V22.2064H1264.63V44.2161ZM1105.53 19.7771H1074.35V-0.000366211H1105.53V19.7771ZM990.611 185.982C986.984 185.757 983.329 185.643 979.647 185.643C972.723 185.643 965.898 186.059 959.185 186.842V294.491C965.651 292.484 972.523 291.4 979.647 291.4C983.38 291.4 987.041 291.702 990.611 292.273V185.982ZM1029.25 192.789C1019.13 189.795 1008.62 187.695 997.826 186.578V293.831C1009.96 297.144 1020.77 303.688 1029.25 312.489V192.789ZM1036.04 122.022L1036.05 194.951L1036.05 320.729C1043.92 331.926 1048.54 345.57 1048.54 360.294C1048.54 375.017 1043.92 388.66 1036.05 399.857V525.359C1040.49 523.824 1044.9 522.118 1049.27 520.246C1056.93 516.974 1062.8 515.671 1067.47 516.397V122.044L1036.04 122.022ZM1105.66 33.8928L1074.23 33.8672V519.491C1077.16 521.989 1079.46 525.92 1081.47 531.321H1105.66V33.8928ZM1143.88 75.696L1112.46 75.6701V531.32H1143.88V75.696ZM997.826 533.979C1008.59 532.825 1019.03 530.654 1029.25 527.561V408.099C1020.77 416.9 1009.96 423.445 997.826 426.758V533.979ZM979.647 534.945C983.343 534.945 986.996 534.828 990.611 534.596V428.314C987.041 428.887 983.38 429.187 979.647 429.187C972.523 429.187 965.651 428.105 959.185 426.097V533.744C965.898 534.529 972.723 534.945 979.647 534.945ZM920.962 524.826C931.043 528.421 941.547 531.123 952.386 532.822V423.579C939.327 417.946 928.357 408.387 920.962 396.391V524.826ZM882.021 505.13C891.832 511.754 902.356 517.4 913.447 521.946V379.419C911.695 373.348 910.754 366.93 910.754 360.294C910.754 353.658 911.695 347.241 913.447 341.169V198.64C902.356 203.186 891.831 208.83 882.021 215.455V505.13ZM843.797 470.045C852.971 481.385 863.526 491.562 875.222 500.298V220.288C863.526 229.025 852.971 239.201 843.797 250.542V470.045ZM805.157 367.532C806.566 402.038 817.977 433.962 836.582 460.478V260.108C817.976 286.625 806.566 318.549 805.157 353.055C804.927 357.882 804.883 362.707 805.157 367.532ZM952.386 187.766C941.547 189.463 931.043 192.164 920.962 195.76V324.197C928.357 312.201 939.327 302.642 952.386 297.009V187.766ZM32.3746 460.92V257.897C15.4764 281.513 4.32981 309.517 0.949305 339.865C-0.0756837 354.183 -0.536394 363.108 0.949305 378.952C4.32981 409.301 15.4764 437.305 32.3746 460.92ZM185.647 185.108C181.963 184.875 178.248 184.758 174.506 184.758C167.643 184.758 160.877 185.166 154.222 185.937V293.553C160.634 291.58 167.446 290.516 174.506 290.516C178.299 290.516 182.02 290.826 185.647 291.417V185.108ZM223.872 191.835C213.749 188.857 203.243 186.771 192.446 185.669V292.881C204.568 296.143 215.369 302.626 223.872 311.361V191.835ZM262.512 208.525C252.615 202.739 242.1 197.901 231.087 194.13V320.101C238.846 331.25 243.398 344.796 243.398 359.408C243.398 374.02 238.846 387.567 231.087 398.715V524.687C242.1 520.917 252.616 516.077 262.512 510.292V208.525ZM297.78 235.696C289.138 227.083 279.596 219.373 269.31 212.711V506.462C282.664 501.796 298.719 512.882 300.425 530.437H300.736V238.168L297.78 235.696ZM339.676 185.968H308.251V530.437H339.676V185.968ZM377.552 185.968H346.475V530.437H377.552V185.968ZM192.446 533.147C203.243 532.045 213.749 529.959 223.872 526.982V407.457C215.369 416.192 204.568 422.675 192.446 425.937V533.147ZM174.506 534.059C178.248 534.059 181.962 533.942 185.647 533.709V427.4C182.02 427.992 178.299 428.302 174.506 428.302C167.446 428.302 160.634 427.238 154.222 425.265V532.879C160.877 533.649 167.643 534.059 174.506 534.059ZM116.038 524.019C126.12 527.599 136.625 530.287 147.463 531.972V422.788C134.433 417.223 123.471 407.755 116.038 395.855V524.019ZM77.813 504.861C87.635 511.402 98.1548 516.975 109.239 521.443V381.523C106.887 374.582 105.612 367.145 105.612 359.408C105.612 351.673 106.887 344.235 109.239 337.294V197.373C98.1548 201.842 87.635 207.415 77.813 213.956V504.861ZM39.1727 469.803C48.3604 481.051 58.9199 491.135 70.598 499.792V219.025C58.9199 227.683 48.3604 237.766 39.1727 249.012V469.803ZM147.463 186.844C136.625 188.529 126.12 191.216 116.038 194.798V322.961C123.471 311.062 134.433 301.594 147.463 296.028V186.844Z" fill="url(#paint0_linear_470_23)"/>
<defs>
<linearGradient id="paint0_linear_470_23" x1="86.2016" y1="774.315" x2="1454.02" y2="673.871" gradientUnits="userSpaceOnUse">
<stop stop-color="#EEDD47"/>
<stop offset="0.440697" stop-color="#E94362"/>
<stop offset="0.765991" stop-color="#269FF6"/>
<stop offset="1" stop-color="#BD38FC"/>
</linearGradient>
</defs>
</svg>
