<svg style="display: none;" aria-hidden="true" xmlns="http://www.w3.org/2000/svg" xmlns:xlink="http://www.w3.org/1999/xlink"><symbol viewBox="0 0 123 43" fill="none" id="svg-logo-white" xmlns="http://www.w3.org/2000/svg">
<path fill-rule="evenodd" clip-rule="evenodd" d="M86.4947 0.822934V1.64587H87.7727H89.0508V0.822934V0L87.7727 0L86.4947 0V0.822934ZM95.6582 0.99586C95.6176 1.06082 95.6064 10.4547 95.6334 21.871L95.6827 42.628L96.979 42.6589L98.2752 42.6898V21.7838V0.877797H97.0037C96.2158 0.877797 95.704 0.922674 95.6582 0.99586ZM101.909 1.82538C101.866 1.8674 101.832 2.29028 101.832 2.76484V3.62782L103.137 3.59699L104.443 3.56605V2.68825V1.81046L103.215 1.77962C102.539 1.76273 101.952 1.78324 101.909 1.82538ZM86.4968 22.1918L86.4989 41.6405L86.8331 42.1659L87.1673 42.6913L88.1368 42.6597L89.1064 42.628L89.1345 22.6856L89.1625 2.74311H87.8286H86.4947L86.4968 22.1918ZM101.909 5.55601C101.866 5.59804 101.832 13.6973 101.832 23.5542V41.4759L102.193 41.4796C102.391 41.4817 102.929 41.6297 103.387 41.8085C103.846 41.9872 104.284 42.1336 104.36 42.1338C104.469 42.1341 104.499 41.0624 104.499 37.1401V32.146L104.171 31.5716C103.737 30.8113 103.498 29.8642 103.501 28.9168C103.505 27.9112 103.646 27.3286 104.116 26.3866L104.5 25.6164L104.472 15.5787L104.443 5.54109L103.215 5.51026C102.539 5.49336 101.952 5.51388 101.909 5.55601ZM89.6698 6.13207C89.6364 6.18561 89.6072 14.419 89.6051 24.4286L89.6011 42.628L90.8819 42.6589L92.1626 42.6898V24.429C92.1626 7.87866 92.1462 6.1618 91.9868 6.10145C91.712 5.99733 89.7379 6.02344 89.6698 6.13207ZM98.7711 7.9276C98.7419 8.00309 98.7311 15.8415 98.7467 25.3464L98.7753 42.628L99.7755 42.6569L100.776 42.6857L101.081 42.1357L101.387 41.5855V24.6879V7.79045H100.105C99.1825 7.79045 98.8091 7.82885 98.7711 7.9276ZM58.7105 11.4627V13.935H60.0462H61.382L61.3521 11.4936L61.3222 9.05228L60.0163 9.02134L58.7105 8.9905V11.4627ZM83.4604 9.83527C83.4177 9.8773 83.3828 13.4723 83.3828 17.8241C83.3828 24.8927 83.4017 25.7631 83.5603 25.9866C83.9671 26.56 84.2915 27.603 84.3507 28.5284C84.425 29.6854 84.2707 30.4514 83.7692 31.4182L83.3828 32.1626V37.1485C83.3828 40.1558 83.424 42.1342 83.4864 42.1342C83.5433 42.1342 83.9969 41.9861 84.4942 41.8051C84.9915 41.624 85.5452 41.4759 85.7247 41.4759H86.0509L86.0227 25.6481L85.9946 9.82035L84.7663 9.78952C84.0907 9.77262 83.503 9.79314 83.4604 9.83527ZM27.9733 11.8859C27.9422 11.9659 27.9313 12.4966 27.9489 13.0655L27.9812 14.0996H29.2037H30.4262L30.4577 12.9201L30.4893 11.7405H29.2595C28.3412 11.7405 28.0155 11.7773 27.9733 11.8859ZM55.6585 13.6932C55.5738 13.7767 55.5837 40.6565 55.6683 40.7401C55.7725 40.8429 56.5617 40.2737 57.4652 39.4442L58.2668 38.7082L58.2386 26.1845L58.2104 13.6607L56.9643 13.6474C56.2789 13.6402 55.6912 13.6607 55.6585 13.6932ZM12.4171 15.06C12.3878 15.1356 12.3769 17.0983 12.3929 19.4216C12.4184 23.1141 12.443 23.6399 12.5887 23.6003C12.6804 23.5755 13.2681 23.5329 13.8946 23.5056L15.0337 23.4562V19.1894V14.9225H13.7522C12.8279 14.9225 12.4557 14.9608 12.4171 15.06ZM15.5301 15.0573C15.5001 15.1344 15.4887 17.0905 15.5047 19.4042L15.5339 23.611L16.1892 23.8741C16.5497 24.0189 17.1101 24.3353 17.4347 24.5773C17.7593 24.8193 18.052 25.0172 18.0852 25.0172C18.1185 25.0172 18.1456 22.8732 18.1456 20.2527V15.4882L17.7844 15.3771C17.5858 15.3161 17.1231 15.2116 16.7564 15.1448C16.3896 15.0782 15.976 14.9997 15.837 14.9704C15.6909 14.9396 15.5616 14.9762 15.5301 15.0573ZM24.8599 15.0729C24.8337 15.141 24.825 21.3689 24.8408 28.9124L24.8693 42.628H26.1474H27.4255V28.8027V14.9774L26.1666 14.9631C25.3208 14.9535 24.892 14.9895 24.8599 15.0729ZM27.9768 15.0597C27.9478 15.1352 27.9368 21.3689 27.9526 28.9124L27.9812 42.628L29.2315 42.6591L30.4818 42.6901V28.8729C30.4818 16.3746 30.465 15.0494 30.3059 14.9891C29.9572 14.857 28.0325 14.9153 27.9768 15.0597ZM34.0011 14.9957C33.8761 15.1192 33.9162 31.6894 34.0435 32.4634C34.2019 33.4279 34.7657 35.1247 35.2334 36.0445C35.7868 37.133 36.3578 37.9863 36.4821 37.9105C36.5989 37.8392 36.6408 15.5914 36.5249 15.1694C36.46 14.933 36.4071 14.9225 35.2662 14.9225C34.6112 14.9225 34.0418 14.9555 34.0011 14.9957ZM37.0388 26.8609V38.7993L37.6702 39.3807C38.2868 39.9486 39.4144 40.8175 39.5346 40.8175C39.5678 40.8175 39.595 34.9912 39.595 27.87V14.9225H38.3169H37.0388V26.8609ZM40.1171 14.9923C40.0744 15.0344 40.0395 20.9396 40.0395 28.1149V41.161L40.9895 41.6005C41.5121 41.8423 42.1123 42.0677 42.3236 42.1015L42.7077 42.1631L42.6795 28.5702L42.6512 14.9774L41.4229 14.9466C40.7473 14.9297 40.1597 14.9502 40.1171 14.9923ZM58.7135 26.4675L58.7165 38.0196L59.0465 37.6355C59.4951 37.1132 60.4092 35.2507 60.7426 34.1792C61.3252 32.307 61.3222 32.3621 61.3222 23.3713V14.9774L60.0163 14.9465L58.7105 14.9156L58.7135 26.4675ZM77.2099 15.06C77.1805 15.1356 77.1696 17.0983 77.1856 19.4216C77.2143 23.5753 77.2184 23.6451 77.437 23.6128C77.5593 23.5948 78.147 23.5512 78.7429 23.5158L79.8265 23.4518V19.1871V14.9225H78.5449C77.6206 14.9225 77.2484 14.9608 77.2099 15.06ZM80.3316 15.0091C80.2521 15.0875 80.261 22.9136 80.3409 23.3449C80.3913 23.616 80.4782 23.7187 80.7003 23.7694C81.0742 23.8547 81.8822 24.3051 82.3802 24.706C82.5928 24.8772 82.8053 25.0172 82.8525 25.0172C82.8997 25.0172 82.9383 22.8712 82.9383 20.2485V15.4796L82.5215 15.3697C82.0991 15.2581 81.2431 15.0856 80.6904 15.0006C80.5237 14.975 80.3623 14.9787 80.3316 15.0091ZM108.03 19.1875L108 23.4524L109.111 23.5187C109.722 23.5551 110.322 23.5986 110.445 23.6153C110.663 23.6452 110.667 23.5788 110.68 19.3664C110.69 16.3115 110.658 15.0641 110.569 15.0065C110.501 14.9622 109.908 14.9252 109.252 14.9242L108.06 14.9225L108.03 19.1875ZM11.5329 15.1066C10.6237 15.306 9.51781 15.6092 9.44635 15.6784C9.37411 15.7484 9.26275 25.895 9.33421 25.895C9.34733 25.895 9.69741 25.5617 10.1122 25.1544C10.5268 24.747 11.1036 24.2903 11.394 24.1395L11.9219 23.8654V19.4489C11.9219 17.0197 11.8844 15.038 11.8386 15.045C11.7928 15.052 11.6552 15.0797 11.5329 15.1066ZM76.3257 15.1093C75.8674 15.1898 74.322 15.6174 74.2415 15.6859C74.1546 15.7599 74.108 25.8818 74.1942 25.9668C74.221 25.9932 74.393 25.8133 74.5766 25.5668C74.9415 25.077 76.1297 24.0884 76.4891 23.9758C76.6132 23.937 76.7157 23.8468 76.7171 23.7755C76.7548 21.8169 76.687 15.1843 76.6288 15.1365C76.5843 15.1001 76.4479 15.0878 76.3257 15.1093ZM105.832 15.2405L104.999 15.4276L104.97 20.2225C104.954 22.8596 104.98 25.0172 105.028 25.0172C105.076 25.0172 105.298 24.8681 105.522 24.6859C105.985 24.3095 107.111 23.7005 107.344 23.7005C107.475 23.7005 107.5 23.006 107.5 19.3664V15.0323L107.083 15.0429C106.854 15.0487 106.291 15.1377 105.832 15.2405ZM111.166 15.3614C111.165 15.4821 111.162 17.4449 111.16 19.723L111.156 23.8651L111.761 24.2199C112.094 24.4151 112.672 24.9043 113.046 25.3069L113.725 26.0389L113.697 20.84L113.668 15.6411L112.723 15.3974C111.495 15.0807 111.167 15.0731 111.166 15.3614ZM18.5901 20.6696V25.6724L18.9214 26.3048C19.7864 27.956 19.8033 29.7703 18.969 31.4147L18.5901 32.1614V37.1597V42.1581L18.8957 42.0837C19.0638 42.0427 19.6639 41.7937 20.2294 41.5301L21.2574 41.0509V28.9146V16.7784L20.2294 16.2934C19.6639 16.0267 19.0638 15.7766 18.8957 15.7377L18.5901 15.6668V20.6696ZM7.59614 16.4631C7.02023 16.7649 6.48267 17.0662 6.40142 17.1327C6.28051 17.2318 6.25395 19.3583 6.25395 28.9245V40.5954L6.6766 40.8588C7.37454 41.2937 8.70195 41.9259 8.79642 41.8683C8.84488 41.8386 8.89578 39.3806 8.90945 36.4058C8.93023 31.8505 8.90711 30.8846 8.76263 30.284C8.54581 29.3826 8.54447 28.4496 8.75852 27.553C8.897 26.9727 8.92267 25.933 8.90722 21.5182C8.897 18.5846 8.86555 16.1227 8.83743 16.0472C8.76486 15.8526 8.75475 15.856 7.59614 16.4631ZM72.5443 16.3806C72.0539 16.6348 71.4913 16.9572 71.2941 17.0971L70.9355 17.3514V28.9146V40.4778L71.4079 40.7978C71.8546 41.1005 73.4149 41.9148 73.5481 41.9148C73.5821 41.9148 73.5844 39.1867 73.5529 35.8525C73.4825 28.3742 73.4825 29.3496 73.5529 22.0272C73.5853 18.6627 73.5721 15.9119 73.5239 15.9142C73.4756 15.9165 73.0348 16.1264 72.5443 16.3806ZM114.327 22.1369C114.398 29.7449 114.398 28.3706 114.327 35.6879C114.294 39.1126 114.296 41.9148 114.331 41.9148C114.466 41.9148 116.023 41.1033 116.474 40.7978L116.946 40.4778V28.9106V17.3432L116.339 16.9595C115.539 16.4545 114.663 16.0198 114.445 16.0198C114.287 16.0198 114.276 16.6223 114.327 22.1369ZM21.702 28.976V34.8506V40.7253L22.0299 40.6542C22.7596 40.4959 23.9449 41.3796 24.1004 42.1977C24.1533 42.476 24.2042 42.5505 24.2709 42.4468C24.3231 42.3654 24.3666 37.1123 24.3676 30.7731L24.3692 19.2474L23.8969 18.7993C23.1982 18.1365 22.012 17.2268 21.8464 17.2268C21.7287 17.2268 21.702 19.4083 21.702 28.976ZM5.24282 17.95C5.03489 18.114 4.4772 18.6404 4.00343 19.1199L3.14212 19.9917V28.8774V37.7631L3.55321 38.2585C4.19914 39.0368 5.61102 40.1881 5.71716 40.023C5.83563 39.8387 5.83207 17.9805 5.71349 17.7959C5.64169 17.6842 5.53578 17.719 5.24282 17.95ZM69.5911 18.3599C69.1386 18.7416 68.5683 19.2958 68.3238 19.5913L67.8793 20.1285L67.8483 28.8441L67.8173 37.5597L68.1195 37.9904C68.438 38.444 69.9345 39.8729 70.2853 40.0582C70.4849 40.1637 70.491 39.8309 70.491 28.9163C70.491 22.7285 70.4736 17.6657 70.4524 17.6657C70.4312 17.6657 70.0435 17.978 69.5911 18.3599ZM117.391 17.9599C117.391 18.13 117.389 23.1821 117.387 29.1867C117.386 35.1914 117.411 40.0919 117.443 40.0769C117.475 40.0619 117.55 40.0495 117.61 40.0495C117.669 40.0495 118.219 39.5619 118.832 38.9659L119.947 37.8823V28.9309V19.9793L119.03 19.0685C118.526 18.5676 117.95 18.0437 117.752 17.9042L117.391 17.6507V17.9599ZM52.5141 30.9149L52.5424 42.1891L52.8202 42.1527C52.9731 42.1326 53.5607 41.9012 54.1261 41.6384L55.1541 41.1607V30.4006V19.6407H53.8199H52.4858L52.5141 30.9149ZM2.10677 21.4786C0.633094 23.8957 0.00672713 26.0895 5.89241e-05 28.8576C-0.00549791 31.1556 0.381591 32.9206 1.32359 34.8924C1.81581 35.9226 2.45863 36.9772 2.59443 36.9772C2.65689 36.9772 2.69757 33.7962 2.69757 28.9124C2.69757 24.0287 2.65689 20.8477 2.59443 20.8477C2.53776 20.8477 2.31826 21.1316 2.10677 21.4786ZM66.6218 21.9734C65.1648 24.5701 64.5805 27.1518 64.8154 29.9556C64.9938 32.0838 65.41 33.5508 66.3408 35.3313C67.485 37.52 67.3738 38.1994 67.3767 28.9947C67.378 24.5741 67.337 20.9574 67.2855 20.9574C67.234 20.9574 66.9353 21.4146 66.6218 21.9734ZM120.476 28.8794C120.46 33.2427 120.464 36.8373 120.485 36.8675C120.645 37.0999 121.903 34.8192 122.335 33.5148C122.943 31.6777 123.003 31.2555 123 28.8576C122.997 26.7798 122.974 26.5245 122.702 25.511C122.54 24.9075 122.231 24.0003 122.015 23.4949C121.616 22.5601 120.809 21.1317 120.613 21.0121C120.544 20.9698 120.495 23.7796 120.476 28.8794ZM51.4041 31.7034C50.9997 32.152 50.6005 32.456 50.0983 32.6975L49.375 33.0454L49.3767 37.8367C49.3777 40.4719 49.4156 42.6857 49.461 42.7563C49.5236 42.8533 49.7874 42.8435 50.5409 42.7164C51.0894 42.624 51.6515 42.5058 51.7902 42.4538L52.0423 42.3592V36.7056C52.0423 33.5961 52.0298 31.0532 52.0145 31.0546C51.9992 31.056 51.7245 31.348 51.4041 31.7034ZM43.1705 36.7461C43.1476 40.2622 43.1739 42.3545 43.2415 42.3957C43.3591 42.4675 44.5967 42.7263 45.3463 42.8358L45.8186 42.9049V37.9824V33.0599L45.0822 32.6909C44.6039 32.4513 44.1659 32.1191 43.8319 31.7432C43.5493 31.425 43.293 31.164 43.2625 31.1633C43.2319 31.1625 43.1906 33.6749 43.1705 36.7461ZM9.39245 37.0527L9.42134 42.1755L10.3104 42.4208C10.7994 42.5558 11.3621 42.6699 11.5607 42.6745L11.9219 42.6829V38.3211V33.9594L11.3967 33.6852C10.8651 33.4078 9.58805 32.2473 9.58805 32.0417C9.58805 31.9801 9.53759 31.9299 9.4758 31.9299C9.40145 31.9299 9.37333 33.6583 9.39245 37.0527ZM74.1577 31.9573C74.1107 33.6041 74.1773 42.0834 74.2376 42.1351C74.3198 42.2056 75.7323 42.5951 76.409 42.734L76.7146 42.7968L76.7145 38.3783L76.7144 33.9598L76.1444 33.6436C75.5797 33.3305 74.3808 32.2368 74.3808 32.0347C74.3808 31.948 74.1602 31.8714 74.1577 31.9573ZM113.501 32.025C113.501 32.2227 112.283 33.3408 111.739 33.6428L111.172 33.9576L111.142 38.0733C111.125 40.3371 111.127 42.3213 111.146 42.4828C111.177 42.7534 111.211 42.7717 111.571 42.7141C111.785 42.6797 112.345 42.5422 112.814 42.4084L113.668 42.1654L113.697 37.0476C113.716 33.6567 113.688 31.9299 113.613 31.9299C113.551 31.9299 113.501 31.9726 113.501 32.025ZM17.4232 33.2544C17.1176 33.4905 16.5674 33.8022 16.2007 33.9472L15.5339 34.2109L15.5047 38.5018L15.4757 42.7926H15.7953C16.1474 42.7926 17.0561 42.6349 17.7187 42.4587L18.1456 42.3452V37.5764C18.1456 34.9536 18.108 32.8116 18.0622 32.8165C18.0164 32.8214 17.7288 33.0184 17.4232 33.2544ZM82.3826 33.1466C81.9954 33.4782 80.774 34.1241 80.5341 34.1242C80.4647 34.1243 80.3807 34.2277 80.3473 34.354C80.2575 34.693 80.2697 42.4886 80.3603 42.6919C80.4286 42.8449 80.5296 42.8496 81.2157 42.7327C81.6436 42.6596 82.2062 42.5426 82.466 42.4725L82.9383 42.3452V37.5764C82.9383 34.9536 82.9008 32.809 82.8549 32.8106C82.809 32.8123 82.5966 32.9635 82.3826 33.1466ZM104.943 37.5776V42.3475L105.527 42.514C105.848 42.6055 106.423 42.7221 106.805 42.7732L107.5 42.866V38.4951C107.5 35.0723 107.469 34.1241 107.361 34.1232C107.092 34.1212 106.003 33.5606 105.541 33.1861C105.283 32.9779 105.044 32.8076 105.008 32.8076C104.972 32.8076 104.943 34.9541 104.943 37.5776ZM46.3075 33.2909C46.2817 33.357 46.2738 35.5552 46.2897 38.1755L46.3187 42.9398L47.1382 42.9864C47.5888 43.0119 48.1765 43.0005 48.444 42.9609L48.9305 42.8888V38.0859C48.9305 35.4444 48.9056 33.2586 48.8752 33.2286C48.8449 33.1986 48.5448 33.2233 48.2084 33.2835C47.7991 33.3568 47.3913 33.3562 46.9756 33.2818C46.5322 33.2024 46.3409 33.2051 46.3075 33.2909ZM12.4216 34.2504C12.3898 34.3323 12.3769 36.3001 12.3929 38.6234L12.422 42.8474L13.7279 42.8784L15.0337 42.9092V38.6393V34.3694L13.9502 34.3181C13.3541 34.29 12.7795 34.2298 12.673 34.1843C12.5492 34.1314 12.4586 34.1552 12.4216 34.2504ZM77.2143 34.2504C77.1825 34.3323 77.1696 36.3001 77.1856 38.6234L77.2148 42.8474L78.5206 42.8784L79.8265 42.9092V38.6393V34.3694L78.7429 34.3181C78.147 34.29 77.5722 34.2298 77.4657 34.1843C77.3419 34.1314 77.2513 34.1552 77.2143 34.2504ZM110.278 34.2404C110.125 34.2852 109.562 34.3268 109.026 34.3328L108.053 34.3438L108.082 38.6372L108.111 42.9306L109.331 42.91C110.132 42.8964 110.58 42.8444 110.636 42.7586C110.743 42.5946 110.742 34.2562 110.634 34.2001C110.591 34.1775 110.431 34.1956 110.278 34.2404Z" fill="white"/>
</symbol></svg>