<svg width="978" height="1250" viewBox="0 0 978 1250" fill="none" xmlns="http://www.w3.org/2000/svg">
<rect y="452" width="23.9747" height="214" rx="5" fill="url(#paint0_linear_470_249)"/>
<rect y="351" width="23.9747" height="84" rx="5" fill="url(#paint1_linear_470_249)"/>
<rect y="304" width="23.9747" height="24" rx="5" fill="#BE39FC"/>
<rect x="895" y="383" width="24" height="284" rx="5" fill="url(#paint2_linear_470_249)"/>
<rect x="895" y="277.093" width="24" height="84.2444" rx="5" fill="url(#paint3_linear_470_249)"/>
<rect x="895" y="231.418" width="24" height="16.2399" rx="5" fill="url(#paint4_linear_470_249)"/>
<rect x="895" width="24" height="49.7346" rx="5" fill="#BE39FC"/>
<rect x="954" y="426" width="24" height="241" rx="5" fill="#269FF6"/>
<rect x="954" y="265" width="24" height="56" rx="5" fill="#269FF6"/>
<rect x="954" y="187" width="24" height="38" rx="5" fill="url(#paint5_linear_470_249)"/>
<rect x="134" y="550" width="23.9747" height="117" rx="5" fill="url(#paint6_linear_470_249)"/>
<rect x="134" y="458" width="24" height="48" rx="5" fill="url(#paint7_linear_470_249)"/>
<rect x="261.724" y="497" width="23.9747" height="169" rx="5" fill="#BE39FC"/>
<rect x="339.642" y="568" width="23.9747" height="98" rx="5" fill="#BE39FC"/>
<rect x="340" y="411" width="24" height="24" rx="5" fill="#BE39FC"/>
<rect x="375.604" y="575" width="23.9747" height="91" rx="5" fill="#C33EEB"/>
<rect x="375.604" y="541" width="23.9747" height="15" rx="5" fill="#C33EEB"/>
<rect x="590.377" y="615" width="23.9747" height="52" rx="5" fill="#8E38FC"/>
<rect x="590" y="564" width="24" height="25" rx="5" fill="#8E38FC"/>
<rect x="175" y="550" width="23.9747" height="117" rx="5" fill="url(#paint8_linear_470_249)"/>
<rect x="175" y="524" width="23.9747" height="20" rx="5" fill="url(#paint9_linear_470_249)"/>
<rect x="175" y="387" width="23.9747" height="20" rx="5" fill="url(#paint10_linear_470_249)"/>
<rect x="742.217" y="461" width="24" height="205" rx="5" fill="url(#paint11_linear_470_249)"/>
<rect x="795" y="461" width="24" height="206" rx="5" fill="url(#paint12_linear_470_249)"/>
<rect x="795" y="411" width="24" height="24" rx="5" fill="#EE5456"/>
<rect x="228.758" y="589" width="23.9747" height="77" rx="5" fill="#269FF6"/>
<rect x="228.758" y="527" width="23.9747" height="35" rx="5" fill="url(#paint13_linear_470_249)"/>
<rect x="88.9062" y="387" width="22.9757" height="280" rx="5" fill="url(#paint14_linear_470_249)"/>
<rect x="88.9062" y="281" width="22.9757" height="81" rx="5" fill="url(#paint15_linear_470_249)"/>
<rect x="88.9062" y="228" width="22.9757" height="26" rx="5" fill="#EE5456"/>
<rect x="87.9072" y="52" width="22.9757" height="29" rx="5" fill="url(#paint16_linear_470_249)"/>
<rect x="43.9541" y="176" width="23.9747" height="52.1061" rx="5" fill="#3A96E7"/>
<rect x="43.9541" y="263.178" width="23.9747" height="403.822" rx="5" fill="url(#paint17_linear_470_249)"/>
<rect x="848" y="245" width="24" height="48" rx="5" fill="#3A96E7"/>
<rect x="848" y="492" width="24" height="175" rx="5" fill="url(#paint18_linear_470_249)"/>
<rect x="848" y="339" width="24" height="122" rx="5" fill="url(#paint19_linear_470_249)"/>
<rect x="645.318" y="528" width="23.9747" height="16.1159" rx="5" fill="#269FF6"/>
<rect x="645.318" y="577.355" width="23.9747" height="89.6449" rx="5" fill="#6E6FFA"/>
<rect x="645" y="483" width="24" height="27" rx="5" fill="#6E6FFA"/>
<g opacity="0.25">
<rect width="24" height="214" rx="5" transform="matrix(1 0 0 -1 0 881)" fill="url(#paint20_linear_470_249)"/>
<rect width="24" height="84" rx="5" transform="matrix(1 0 0 -1 0 982)" fill="url(#paint21_linear_470_249)"/>
<rect width="24" height="24" rx="5" transform="matrix(1 0 0 -1 0 1029)" fill="url(#paint22_linear_470_249)"/>
<rect width="24" height="322.732" rx="5" transform="matrix(1 0 0 -1 895 989.732)" fill="url(#paint23_linear_470_249)"/>
<rect width="24" height="161.875" rx="5" transform="matrix(1 0 0 -1 895 1177.06)" fill="url(#paint24_linear_470_249)"/>
<rect width="24" height="29.5244" rx="5" transform="matrix(1 0 0 -1 895 1230)" fill="url(#paint25_linear_470_249)"/>
<rect width="24" height="293.217" rx="5" transform="matrix(1 0 0 -1 954 959.217)" fill="url(#paint26_linear_470_249)"/>
<rect width="24" height="68.1333" rx="5" transform="matrix(1 0 0 -1 954 1155.1)" fill="url(#paint27_linear_470_249)"/>
<rect width="24" height="46.2333" rx="5" transform="matrix(1 0 0 -1 954 1250)" fill="url(#paint28_linear_470_249)"/>
<rect width="24" height="227" rx="5" transform="matrix(1 0 0 -1 134.132 893)" fill="url(#paint29_linear_470_249)"/>
<rect width="24" height="170" rx="5" transform="matrix(1 0 0 -1 262 836)" fill="#B24CFF"/>
<rect width="24" height="99" rx="5" transform="matrix(1 0 0 -1 340 765)" fill="#B24CFF"/>
<rect width="24" height="92" rx="5" transform="matrix(1 0 0 -1 376 758)" fill="#C402E0"/>
<rect width="24" height="15" rx="5" transform="matrix(1 0 0 -1 376 792)" fill="#C402E0"/>
<rect width="24" height="122" rx="5" transform="matrix(1 0 0 -1 590 789)" fill="#8E38FC"/>
<rect width="24" height="18" rx="5" transform="matrix(1 0 0 -1 590 815)" fill="#8E38FC"/>
<rect width="24" height="235.636" rx="5" transform="matrix(1 0 0 -1 175.17 901.636)" fill="url(#paint30_linear_470_249)"/>
<rect width="24" height="40.2797" rx="5" transform="matrix(1 0 0 -1 175.17 954)" fill="url(#paint31_linear_470_249)"/>
<rect width="24" height="264" rx="5" transform="matrix(1 0 0 -1 795 930)" fill="url(#paint32_linear_470_249)"/>
<rect width="24" height="262" rx="5" transform="matrix(1 0 0 -1 742 913)" fill="url(#paint33_linear_470_249)"/>
<rect width="23" height="31" rx="5" transform="matrix(1 0 0 -1 795 994)" fill="#DB9D78"/>
<rect width="24" height="77.554" rx="5" transform="matrix(1 0 0 -1 229 743.554)" fill="#4576F9"/>
<rect width="24" height="35.2518" rx="5" transform="matrix(1 0 0 -1 229 806)" fill="url(#paint34_linear_470_249)"/>
<rect width="24" height="280" rx="5" transform="matrix(1 0 0 -1 89 946)" fill="url(#paint35_linear_470_249)"/>
<rect width="24" height="81" rx="5" transform="matrix(1 0 0 -1 89 1052)" fill="url(#paint36_linear_470_249)"/>
<rect width="24" height="26" rx="5" transform="matrix(1 0 0 -1 89 1105)" fill="#DB9D78"/>
<rect width="24" height="52" rx="5" transform="matrix(1 0 0 -1 44 1157)" fill="#269FF6"/>
<rect width="24" height="403" rx="5" transform="matrix(1 0 0 -1 44 1070)" fill="url(#paint37_linear_470_249)"/>
<rect width="24" height="233.886" rx="5" transform="matrix(1 0 0 -1 848 899.886)" fill="url(#paint38_linear_470_249)"/>
<rect width="24" height="163.052" rx="5" transform="matrix(1 0 0 -1 848 1104.37)" fill="url(#paint39_linear_470_249)"/>
<rect width="24" height="190.899" rx="5" transform="matrix(1 0 0 -1 645 857.899)" fill="url(#paint40_linear_470_249)"/>
</g>
<rect x="471" y="667" width="24" height="110" rx="5" fill="#DB9D78" fill-opacity="0.25"/>
<rect x="471" y="631" width="24" height="16" rx="5" fill="#DB9D78"/>
<rect x="471" y="599" width="24" height="11" rx="5" fill="#DB9D78"/>
<rect x="471" y="563" width="24" height="28" rx="5" fill="#DB9D78"/>
<defs>
<linearGradient id="paint0_linear_470_249" x1="11.9873" y1="452" x2="11.9873" y2="666" gradientUnits="userSpaceOnUse">
<stop stop-color="#A049FF"/>
<stop offset="0.730019" stop-color="#C64EFF"/>
<stop offset="1" stop-color="#C448FF"/>
</linearGradient>
<linearGradient id="paint1_linear_470_249" x1="11.9873" y1="351" x2="11.9873" y2="435" gradientUnits="userSpaceOnUse">
<stop stop-color="#BE39FC"/>
<stop offset="1" stop-color="#8F39FD"/>
</linearGradient>
<linearGradient id="paint2_linear_470_249" x1="907" y1="383" x2="907" y2="667" gradientUnits="userSpaceOnUse">
<stop stop-color="#8A43D7"/>
<stop offset="0.730019" stop-color="#269FF6"/>
<stop offset="1" stop-color="#269FF6"/>
</linearGradient>
<linearGradient id="paint3_linear_470_249" x1="907" y1="277.093" x2="907" y2="361.337" gradientUnits="userSpaceOnUse">
<stop stop-color="#BE39FC"/>
<stop offset="1" stop-color="#8F39FD"/>
</linearGradient>
<linearGradient id="paint4_linear_470_249" x1="907" y1="231.418" x2="907" y2="247.658" gradientUnits="userSpaceOnUse">
<stop stop-color="#BE39FC"/>
<stop offset="1" stop-color="#8F39FD"/>
</linearGradient>
<linearGradient id="paint5_linear_470_249" x1="966" y1="187" x2="966" y2="225" gradientUnits="userSpaceOnUse">
<stop stop-color="#5FBCFF"/>
<stop offset="1" stop-color="#5FBCFF"/>
</linearGradient>
<linearGradient id="paint6_linear_470_249" x1="145.987" y1="550" x2="145.987" y2="667" gradientUnits="userSpaceOnUse">
<stop stop-color="#EEDE48"/>
<stop offset="1" stop-color="#FF882E"/>
</linearGradient>
<linearGradient id="paint7_linear_470_249" x1="146" y1="458" x2="146" y2="506" gradientUnits="userSpaceOnUse">
<stop stop-color="#EEDE48"/>
<stop offset="1" stop-color="#FF882E"/>
</linearGradient>
<linearGradient id="paint8_linear_470_249" x1="186.987" y1="550" x2="186.987" y2="667" gradientUnits="userSpaceOnUse">
<stop stop-color="#EEDE48"/>
<stop offset="1" stop-color="#FF882E"/>
</linearGradient>
<linearGradient id="paint9_linear_470_249" x1="186.987" y1="524" x2="186.987" y2="544" gradientUnits="userSpaceOnUse">
<stop stop-color="#EEDE48"/>
<stop offset="1" stop-color="#FF882E"/>
</linearGradient>
<linearGradient id="paint10_linear_470_249" x1="186.987" y1="387" x2="186.987" y2="407" gradientUnits="userSpaceOnUse">
<stop stop-color="#EEDE48"/>
<stop offset="1" stop-color="#FF882E"/>
</linearGradient>
<linearGradient id="paint11_linear_470_249" x1="754.217" y1="461" x2="754.217" y2="666" gradientUnits="userSpaceOnUse">
<stop stop-color="#EEDE48"/>
<stop offset="0.435518" stop-color="#BE39FC"/>
<stop offset="1" stop-color="#7B47DA"/>
</linearGradient>
<linearGradient id="paint12_linear_470_249" x1="807" y1="461" x2="807" y2="667" gradientUnits="userSpaceOnUse">
<stop stop-color="#EE5456"/>
<stop offset="1" stop-color="#5384EF"/>
</linearGradient>
<linearGradient id="paint13_linear_470_249" x1="266.283" y1="573.5" x2="242.219" y2="454.098" gradientUnits="userSpaceOnUse">
<stop stop-color="#269FF6"/>
<stop offset="1" stop-color="#EE5456"/>
</linearGradient>
<linearGradient id="paint14_linear_470_249" x1="100.394" y1="387" x2="100.394" y2="667" gradientUnits="userSpaceOnUse">
<stop stop-color="#EEDE48"/>
<stop offset="1" stop-color="#FF882E"/>
</linearGradient>
<linearGradient id="paint15_linear_470_249" x1="100.394" y1="281" x2="100.394" y2="362" gradientUnits="userSpaceOnUse">
<stop stop-color="#EEDE48"/>
<stop offset="1" stop-color="#FF882E"/>
</linearGradient>
<linearGradient id="paint16_linear_470_249" x1="99.3951" y1="52" x2="99.3951" y2="81" gradientUnits="userSpaceOnUse">
<stop stop-color="#EEDE48"/>
<stop offset="1" stop-color="#FF882E"/>
</linearGradient>
<linearGradient id="paint17_linear_470_249" x1="55.9414" y1="263.178" x2="55.9414" y2="667" gradientUnits="userSpaceOnUse">
<stop stop-color="#3C95E6"/>
<stop offset="1" stop-color="#706DFA"/>
</linearGradient>
<linearGradient id="paint18_linear_470_249" x1="860" y1="492" x2="860" y2="667" gradientUnits="userSpaceOnUse">
<stop stop-color="#3C95E6"/>
<stop offset="1" stop-color="#706DFA"/>
</linearGradient>
<linearGradient id="paint19_linear_470_249" x1="860" y1="339" x2="860" y2="461" gradientUnits="userSpaceOnUse">
<stop stop-color="#3C95E6"/>
<stop offset="1" stop-color="#706DFA"/>
</linearGradient>
<linearGradient id="paint20_linear_470_249" x1="12" y1="0" x2="12" y2="214" gradientUnits="userSpaceOnUse">
<stop stop-color="#A049FF"/>
<stop offset="0.730019" stop-color="#C64EFF"/>
<stop offset="1" stop-color="#C448FF"/>
</linearGradient>
<linearGradient id="paint21_linear_470_249" x1="12" y1="0" x2="12" y2="84" gradientUnits="userSpaceOnUse">
<stop stop-color="#A049FF"/>
<stop offset="1" stop-color="#C64EFF"/>
</linearGradient>
<linearGradient id="paint22_linear_470_249" x1="12" y1="0" x2="12" y2="24" gradientUnits="userSpaceOnUse">
<stop stop-color="#A049FF"/>
<stop offset="1" stop-color="#8E38FC"/>
</linearGradient>
<linearGradient id="paint23_linear_470_249" x1="12" y1="0" x2="12" y2="322.732" gradientUnits="userSpaceOnUse">
<stop stop-color="#A049FF"/>
<stop offset="0.730019" stop-color="#269FF6"/>
<stop offset="1" stop-color="#269FF6"/>
</linearGradient>
<linearGradient id="paint24_linear_470_249" x1="12" y1="0" x2="12" y2="161.875" gradientUnits="userSpaceOnUse">
<stop stop-color="#A049FF"/>
<stop offset="1" stop-color="#C64EFF"/>
</linearGradient>
<linearGradient id="paint25_linear_470_249" x1="12" y1="0" x2="12" y2="29.5244" gradientUnits="userSpaceOnUse">
<stop stop-color="#A049FF"/>
<stop offset="1" stop-color="#8E38FC"/>
</linearGradient>
<linearGradient id="paint26_linear_470_249" x1="12" y1="0" x2="12" y2="293.217" gradientUnits="userSpaceOnUse">
<stop stop-color="#269FF6"/>
<stop offset="0.730019" stop-color="#65BEFF"/>
<stop offset="1" stop-color="#269FF6"/>
</linearGradient>
<linearGradient id="paint27_linear_470_249" x1="12" y1="0" x2="12" y2="68.1333" gradientUnits="userSpaceOnUse">
<stop stop-color="#269FF6"/>
<stop offset="1" stop-color="#60BCFF"/>
</linearGradient>
<linearGradient id="paint28_linear_470_249" x1="12" y1="0" x2="12" y2="46.2333" gradientUnits="userSpaceOnUse">
<stop stop-color="#5FBCFF"/>
<stop offset="1" stop-color="#5FBCFF"/>
</linearGradient>
<linearGradient id="paint29_linear_470_249" x1="12" y1="0" x2="12" y2="227" gradientUnits="userSpaceOnUse">
<stop stop-color="#EEDE48"/>
<stop offset="1" stop-color="#DB9D78"/>
</linearGradient>
<linearGradient id="paint30_linear_470_249" x1="12" y1="0" x2="12" y2="235.636" gradientUnits="userSpaceOnUse">
<stop stop-color="#EEDE48"/>
<stop offset="1" stop-color="#DB9D78"/>
</linearGradient>
<linearGradient id="paint31_linear_470_249" x1="12" y1="0" x2="12" y2="40.2797" gradientUnits="userSpaceOnUse">
<stop stop-color="#EEDE48"/>
<stop offset="1" stop-color="#DB9D78"/>
</linearGradient>
<linearGradient id="paint32_linear_470_249" x1="12" y1="0" x2="12" y2="264" gradientUnits="userSpaceOnUse">
<stop stop-color="#DB9D78"/>
<stop offset="1" stop-color="#4576F9"/>
</linearGradient>
<linearGradient id="paint33_linear_470_249" x1="12" y1="0" x2="12" y2="262" gradientUnits="userSpaceOnUse">
<stop stop-color="#EEDE48"/>
<stop offset="0.435518" stop-color="#BE5EEB"/>
<stop offset="1" stop-color="#3B5BB1"/>
</linearGradient>
<linearGradient id="paint34_linear_470_249" x1="37.5652" y1="46.8345" x2="13.1905" y2="-73.3688" gradientUnits="userSpaceOnUse">
<stop stop-color="#4576F9"/>
<stop offset="1" stop-color="#DB9D78"/>
</linearGradient>
<linearGradient id="paint35_linear_470_249" x1="12" y1="0" x2="12" y2="280" gradientUnits="userSpaceOnUse">
<stop stop-color="#EEDE48"/>
<stop offset="1" stop-color="#DB9D78"/>
</linearGradient>
<linearGradient id="paint36_linear_470_249" x1="12" y1="0" x2="12" y2="81" gradientUnits="userSpaceOnUse">
<stop stop-color="#EEDE48"/>
<stop offset="1" stop-color="#DB9D78"/>
</linearGradient>
<linearGradient id="paint37_linear_470_249" x1="12" y1="0" x2="12" y2="403" gradientUnits="userSpaceOnUse">
<stop stop-color="#269FF6"/>
<stop offset="1" stop-color="#4576F9"/>
</linearGradient>
<linearGradient id="paint38_linear_470_249" x1="12" y1="0" x2="12" y2="233.886" gradientUnits="userSpaceOnUse">
<stop stop-color="#269FF6"/>
<stop offset="1" stop-color="#4576F9"/>
</linearGradient>
<linearGradient id="paint39_linear_470_249" x1="12" y1="0" x2="12" y2="163.052" gradientUnits="userSpaceOnUse">
<stop stop-color="#269FF6"/>
<stop offset="1" stop-color="#4576F9"/>
</linearGradient>
<linearGradient id="paint40_linear_470_249" x1="12" y1="0" x2="12" y2="190.899" gradientUnits="userSpaceOnUse">
<stop stop-color="#4576F9"/>
<stop offset="1" stop-color="#4576F9"/>
</linearGradient>
</defs>
</svg>
