<svg width="923" height="1540" viewBox="0 0 923 1540" fill="none" xmlns="http://www.w3.org/2000/svg">
<rect x="540" y="379.5" width="24" height="234" rx="5" fill="url(#paint0_linear_801_55)"/>
<path d="M898.509 33.3325C898.504 30.846 900.327 28.7336 902.787 28.3748L916.778 26.3344C919.795 25.8945 922.5 28.2334 922.5 31.2821V760.5C922.5 763.261 920.261 765.5 917.5 765.5H904.959C902.202 765.5 899.965 763.267 899.959 760.51L898.509 33.3325Z" fill="url(#paint1_linear_801_55)"/>
<rect x="899" y="820.5" width="24" height="45" rx="5" fill="#3897E9"/>
<rect x="839" y="1123.5" width="24" height="58" rx="5" fill="url(#paint2_linear_801_55)"/>
<rect width="24" height="186" rx="5" transform="matrix(1 0 0 -1 839 1411.5)" fill="url(#paint3_linear_801_55)"/>
<rect x="301" y="974.5" width="24" height="327" rx="5" fill="url(#paint4_linear_801_55)"/>
<rect x="301" y="931.5" width="24" height="16" rx="5" fill="#BA39FC" fill-opacity="0.3"/>
<rect x="301" y="867.5" width="24" height="36" rx="5" fill="#8D39FC" fill-opacity="0.18"/>
<rect x="678" y="1329.5" width="24" height="119" rx="5" fill="#8A43D7"/>
<rect x="678" y="1487.5" width="24" height="52" rx="5" fill="#8A43D7"/>
<rect y="883.5" width="24" height="67.4022" rx="5" fill="#BE39FC"/>
<rect y="996.269" width="24" height="67.4022" rx="5" fill="#BE39FC"/>
<rect y="1127.18" width="24" height="233.315" rx="5" fill="url(#paint5_linear_801_55)"/>
<rect x="390" y="293.5" width="24" height="241" rx="5" fill="url(#paint6_linear_801_55)" fill-opacity="0.24"/>
<path d="M90.5 6.60066C90.5 4.00021 92.4933 1.83389 95.0848 1.61794L109.085 0.451269C112 0.208344 114.5 2.5088 114.5 5.434V1000.5C114.5 1003.26 112.261 1005.5 109.5 1005.5H95.5C92.7386 1005.5 90.5 1003.26 90.5 1000.5V6.60066Z" fill="url(#paint7_linear_801_55)"/>
<defs>
<linearGradient id="paint0_linear_801_55" x1="552" y1="379.5" x2="551.337" y2="613.5" gradientUnits="userSpaceOnUse">
<stop stop-color="#EEDE48" stop-opacity="0"/>
<stop offset="0.519029" stop-color="#EEDE48"/>
<stop offset="1" stop-color="#EEDE48" stop-opacity="0"/>
</linearGradient>
<linearGradient id="paint1_linear_801_55" x1="911.235" y1="25.5" x2="911.235" y2="765.5" gradientUnits="userSpaceOnUse">
<stop stop-color="#AE43FC"/>
<stop offset="0.307622" stop-color="#883BF0"/>
<stop offset="0.519029" stop-color="#3A96E8"/>
<stop offset="1" stop-color="#3897E9"/>
</linearGradient>
<linearGradient id="paint2_linear_801_55" x1="851" y1="1123.5" x2="851" y2="1181.5" gradientUnits="userSpaceOnUse">
<stop stop-color="#8A43D7"/>
<stop offset="1" stop-color="#BE39FC"/>
</linearGradient>
<linearGradient id="paint3_linear_801_55" x1="12" y1="0" x2="12" y2="186" gradientUnits="userSpaceOnUse">
<stop stop-color="#8A43D7"/>
<stop offset="1" stop-color="#BE39FC"/>
</linearGradient>
<linearGradient id="paint4_linear_801_55" x1="313" y1="974.5" x2="313" y2="1301.5" gradientUnits="userSpaceOnUse">
<stop stop-color="#BE39FC"/>
<stop offset="0.519029" stop-color="#F25E4E"/>
<stop offset="1" stop-color="#F4C23F"/>
</linearGradient>
<linearGradient id="paint5_linear_801_55" x1="12" y1="1127.18" x2="12" y2="1360.5" gradientUnits="userSpaceOnUse">
<stop stop-color="#BE39FC"/>
<stop offset="1" stop-color="#BE39FC" stop-opacity="0"/>
</linearGradient>
<linearGradient id="paint6_linear_801_55" x1="402" y1="293.5" x2="402" y2="534.5" gradientUnits="userSpaceOnUse">
<stop stop-color="#8D39FB" stop-opacity="0"/>
<stop offset="0.519029" stop-color="#8D39FB"/>
<stop offset="0.824441" stop-color="#8D39FB" stop-opacity="0.69"/>
<stop offset="1" stop-color="#8D39FB" stop-opacity="0"/>
</linearGradient>
<linearGradient id="paint7_linear_801_55" x1="102" y1="-4.5" x2="102" y2="1005.5" gradientUnits="userSpaceOnUse">
<stop stop-color="#EC9155"/>
<stop offset="0.090862" stop-color="#EE5456"/>
<stop offset="0.187438" stop-color="#269FF6"/>
<stop offset="0.294704" stop-color="#269FF6" stop-opacity="0"/>
<stop offset="0.658814" stop-color="#3997E9" stop-opacity="0"/>
<stop offset="0.915826" stop-color="#2B9CF7"/>
<stop offset="1" stop-color="#2B9CF7" stop-opacity="0"/>
</linearGradient>
</defs>
</svg>
