<svg width="1195" height="1371" viewBox="0 0 1195 1371" fill="none" xmlns="http://www.w3.org/2000/svg">
<path fill-rule="evenodd" clip-rule="evenodd" d="M330.978 144.869H355.571V367.277C341.735 349.43 330.978 322.27 330.978 299.633V144.869ZM360.86 144.869H385.453V394.184C376.144 388.366 367.924 381.451 360.86 373.601V144.869ZM390.774 144.869H415.182V278.297C415.182 279.726 415.247 281.122 415.367 282.487V407.804C406.538 405.046 398.33 401.527 390.774 397.324V144.869ZM421.013 300.219C426.534 309.434 435.47 315.919 445.605 319.438V413.926C436.975 413.031 428.771 411.52 421.013 409.442V300.219ZM450.926 320.988C454.981 321.951 459.157 322.467 463.327 322.518C467.426 322.467 471.531 321.971 475.52 321.037V414.415C471.548 414.702 467.49 414.863 463.346 414.889L463.307 414.89C459.091 414.864 454.966 414.693 450.926 414.399V320.988ZM481.4 319.312C491.608 315.687 500.568 309.041 505.993 299.614V409.35C498.238 411.45 490.032 412.977 481.4 413.891V319.312ZM511.314 282.203C511.417 280.93 511.471 279.627 511.471 278.297V189.771H535.906V397.309C528.352 401.516 520.141 405.035 511.314 407.795V282.203ZM541.553 132.297H566.146V373.203C559.093 381.118 550.872 388.094 541.553 393.965V132.297ZM571.467 144.869H596.059L595 299C593.236 324.818 585.373 347.741 571 366.5V213L571.467 144.869ZM1058.3 143.761C1055.42 143.761 1052.56 143.849 1049.72 144.023V226.288C1052.51 225.846 1055.38 225.613 1058.3 225.613C1063.87 225.613 1069.25 226.45 1074.31 228.004V144.689C1069.06 144.082 1063.72 143.761 1058.3 143.761ZM1044.07 144.484C1035.62 145.349 1027.4 146.974 1019.48 149.291V241.934C1026.12 235.123 1034.57 230.057 1044.07 227.493V144.484ZM1014.16 150.965V53.2115L989.556 53.2287V399.749C993.21 399.188 997.811 400.196 1003.8 402.728C1007.22 404.177 1010.67 405.497 1014.15 406.684V309.552C1007.99 300.887 1004.37 290.328 1004.37 278.932C1004.37 267.536 1007.99 256.978 1014.15 248.312V150.965L1014.16 150.965ZM984.276 74.7865L959.683 74.8065V411.3H978.616C980.187 407.119 981.989 404.078 984.276 402.144V74.7865ZM954.363 8.35687L929.77 8.37689V411.299H954.363V8.35687ZM1019.48 408.39C1027.48 410.784 1035.65 412.463 1044.07 413.357V330.373C1034.57 327.809 1026.12 322.743 1019.48 315.93V408.39ZM1049.72 413.834C1052.55 414.013 1055.41 414.104 1058.3 414.104C1063.72 414.104 1069.06 413.782 1074.31 413.176V329.862C1069.25 331.416 1063.87 332.253 1058.3 332.253C1055.38 332.253 1052.51 332.02 1049.72 331.577V413.834ZM1079.63 412.462C1088.11 411.146 1095.61 409.467 1103.5 406.684L1104.23 306.87C1098.44 316.154 1089.85 323.552 1079.63 327.912V412.462ZM1110.11 404.044C1118.79 400.525 1127.02 396.156 1134.7 391.029V166.833C1127.02 161.706 1118.79 157.339 1110.11 153.82V264.131C1111.48 268.831 1112.21 273.796 1112.21 278.932C1112.21 284.07 1111.48 289.035 1110.11 293.734V404.044ZM1140.02 387.29C1149.17 380.528 1157.43 372.651 1164.61 363.875V193.989C1157.43 185.213 1149.17 177.336 1140.02 170.574V387.29ZM1170.26 356.47C1184.82 335.949 1193.75 311.241 1194.85 284.535C1195.08 280.891 1195.02 277.131 1194.85 273.331C1193.75 246.623 1184.82 221.916 1170.26 201.393V356.47ZM1104.23 151.591C1096.34 148.808 1088.11 146.718 1079.63 145.403V229.953C1089.85 234.313 1098.44 241.71 1104.23 250.995V151.591ZM297.134 135.34H272.981V113.068H297.134V135.34ZM595.889 133.902H571.416V86.4277H595.889V133.902ZM989.673 34.2217H1014.15V17.1872H989.673V34.2217ZM865.17 15.3069H840.765V0H865.17V15.3069ZM775.234 143.942C772.396 143.768 769.535 143.679 766.654 143.679C761.235 143.679 755.894 144.001 750.641 144.608V227.923C755.7 226.37 761.079 225.531 766.654 225.531C769.575 225.531 772.44 225.764 775.234 226.206V143.942ZM805.473 149.21C797.551 146.893 789.331 145.267 780.88 144.403V227.412C790.379 229.976 798.833 235.041 805.473 241.853V149.21ZM810.783 94.4398L810.794 150.884L810.793 248.23C816.951 256.896 820.568 267.456 820.568 278.851C820.568 290.247 816.951 300.806 810.793 309.471V406.604C814.27 405.416 817.717 404.096 821.143 402.648C827.131 400.115 831.731 399.107 835.386 399.669V94.457L810.783 94.4398ZM865.269 26.2319L840.676 26.212L841.5 402.648C843.788 404.581 844.766 407.039 846.336 411.219H865.269V26.2319ZM895.183 58.5856L870.59 58.5656V411.218H895.183V58.5856ZM780.88 413.276C789.303 412.383 797.473 410.703 805.473 408.309V315.85C798.833 322.662 790.379 327.728 780.88 330.291V413.276ZM766.654 414.023C769.546 414.023 772.405 413.933 775.234 413.753V331.496C772.44 331.939 769.575 332.172 766.654 332.172C761.079 332.172 755.7 331.335 750.641 329.781V413.094C755.894 413.701 761.235 414.023 766.654 414.023ZM721 408C728.889 410.782 736.517 412.185 745 413.5L745.32 327.832C735.1 323.472 726.515 316.073 720.728 306.789L721 408ZM690.254 390.948C697.931 396.075 706.167 400.445 714.847 403.963V293.653C713.476 288.954 712.74 283.988 712.74 278.852C712.74 273.716 713.476 268.749 714.847 264.05V153.739C706.167 157.257 697.93 161.625 690.254 166.753V390.948ZM660.34 363.794C667.519 372.571 675.78 380.447 684.933 387.209V170.493C675.78 177.255 667.519 185.131 660.34 193.909V363.794ZM630.102 284.454C631.204 311.159 640.134 335.868 654.694 356.39V201.312C640.133 221.835 631.204 246.543 630.102 273.249C629.922 276.985 629.887 280.719 630.102 284.454ZM745.32 145.323C736.837 146.636 728.617 148.727 720.728 151.51V250.914C726.515 241.63 735.1 234.232 745.32 229.872V145.323ZM25.3357 357.002V199.872C12.1116 218.149 3.38843 239.823 0.742907 263.311C-0.0592286 274.392 -0.419772 281.3 0.742907 293.563C3.38843 317.051 12.1116 338.725 25.3357 357.002ZM145.284 143.536C142.401 143.356 139.493 143.265 136.565 143.265C131.194 143.265 125.899 143.581 120.691 144.178V227.468C125.709 225.941 131.04 225.117 136.565 225.117C139.533 225.117 142.445 225.357 145.284 225.815V143.536ZM175.198 148.742C167.276 146.438 159.054 144.823 150.605 143.97V226.948C160.091 229.472 168.544 234.49 175.198 241.25V148.742ZM205.437 161.66C197.692 157.182 189.463 153.437 180.844 150.519V248.015C186.917 256.643 190.479 267.128 190.479 278.437C190.479 289.746 186.917 300.23 180.844 308.858L181 406.271C189.618 403.353 197.256 399.248 205 394.771L205.437 161.66ZM233.037 182.689C226.274 176.023 218.806 170.055 210.757 164.9V392.25C221.207 388.638 233.771 397.219 235.106 410.805H235.35V184.602L233.037 182.689ZM265.824 144.202H241.231V410.805H265.824V144.202ZM295.465 144.202H271.145L271.5 410.805H295.465V144.202ZM150.605 412.902C159.054 412.05 167.276 410.435 175.198 408.131V315.624C168.544 322.385 160.091 327.402 150.605 329.927V412.902ZM136.565 413.608C139.493 413.608 142.4 413.518 145.284 413.337V331.059C142.445 331.517 139.533 331.757 136.565 331.757C131.04 331.757 125.709 330.934 120.691 329.407V412.695C125.899 413.291 131.194 413.608 136.565 413.608ZM90.8088 405.838C98.6989 408.609 106.92 410.689 115.402 411.994V327.49C105.205 323.183 96.6262 315.855 90.8088 306.645V405.838ZM60.895 391.01C68.5814 396.073 76.814 400.386 85.4881 403.844V295.552C83.6476 290.181 82.6499 284.424 82.6499 278.437C82.6499 272.45 83.6476 266.693 85.4881 261.321V153.029C76.814 156.487 68.5814 160.8 60.895 165.863V391.01ZM30.6558 363.877C37.8459 372.582 46.1096 380.387 55.2486 387.087V169.786C46.1096 176.487 37.8459 184.291 30.6558 192.995V363.877ZM115.402 144.88C106.92 146.184 98.6989 148.264 90.8088 151.035V250.228C96.6262 241.019 105.205 233.691 115.402 229.383V144.88Z" fill="url(#paint0_linear_801_61)"/>
<rect x="571" y="213" width="24" height="190" rx="5" fill="url(#paint1_linear_801_61)"/>
<rect x="1020" y="379" width="24" height="453" rx="5" fill="url(#paint2_linear_801_61)"/>
<rect x="571" y="435" width="24" height="45" rx="5" fill="#3996EE"/>
<path d="M1079.51 398.832C1079.5 396.346 1081.33 394.234 1083.79 393.875L1097.78 391.834C1100.8 391.394 1103.5 393.733 1103.5 396.782V1126C1103.5 1128.76 1101.26 1131 1098.5 1131H1085.96C1083.2 1131 1080.96 1128.77 1080.96 1126.01L1079.51 398.832Z" fill="url(#paint3_linear_801_61)"/>
<rect x="1080" y="1186" width="24" height="45" rx="5" fill="#3897E9"/>
<path d="M481.506 398.624C481.502 396.981 482.306 395.441 483.656 394.504L498.15 384.447C501.465 382.147 506 384.519 506 388.555V602C506 604.761 503.761 607 501 607H486.988C484.231 607 481.995 604.769 481.988 602.012L481.506 398.624Z" fill="url(#paint4_linear_801_61)"/>
<rect x="482" y="825" width="24" height="154" rx="5" fill="url(#paint5_linear_801_61)"/>
<rect x="721" y="395" width="24" height="152" rx="5" fill="url(#paint6_linear_801_61)"/>
<path d="M271.5 372.101C271.5 369.5 273.493 367.334 276.085 367.118L290.085 365.951C293 365.708 295.5 368.009 295.5 370.934V1366C295.5 1368.76 293.261 1371 290.5 1371H276.5C273.739 1371 271.5 1368.76 271.5 1366V372.101Z" fill="url(#paint7_linear_801_61)"/>
<defs>
<linearGradient id="paint0_linear_801_61" x1="67.4597" y1="599.285" x2="1137.76" y2="519.813" gradientUnits="userSpaceOnUse">
<stop stop-color="#EEDD47"/>
<stop offset="0.440697" stop-color="#E94362"/>
<stop offset="0.765991" stop-color="#269FF6"/>
<stop offset="1" stop-color="#BD38FC"/>
</linearGradient>
<linearGradient id="paint1_linear_801_61" x1="583" y1="213" x2="583" y2="403" gradientUnits="userSpaceOnUse">
<stop stop-color="#C3557F"/>
<stop offset="0.519029" stop-color="#986AA0"/>
<stop offset="1" stop-color="#2D9BF7"/>
</linearGradient>
<linearGradient id="paint2_linear_801_61" x1="1032" y1="379" x2="1032" y2="832" gradientUnits="userSpaceOnUse">
<stop stop-color="#8261FA"/>
<stop offset="0.519029" stop-color="#3798EA"/>
<stop offset="1" stop-color="#3897EA" stop-opacity="0"/>
</linearGradient>
<linearGradient id="paint3_linear_801_61" x1="1092.23" y1="391" x2="1092.23" y2="1131" gradientUnits="userSpaceOnUse">
<stop stop-color="#AE43FC"/>
<stop offset="0.307622" stop-color="#883BF0"/>
<stop offset="0.519029" stop-color="#3A96E8"/>
<stop offset="1" stop-color="#3897E9"/>
</linearGradient>
<linearGradient id="paint4_linear_801_61" x1="494" y1="387.5" x2="494" y2="607" gradientUnits="userSpaceOnUse">
<stop stop-color="#E94F61"/>
<stop offset="0.519029" stop-color="#8140E4"/>
<stop offset="1" stop-color="#883CEF"/>
</linearGradient>
<linearGradient id="paint5_linear_801_61" x1="494" y1="825" x2="494" y2="979" gradientUnits="userSpaceOnUse">
<stop stop-color="#8D39FB"/>
<stop offset="0.519029" stop-color="#8D39FB"/>
<stop offset="0.824441" stop-color="#8D39FB" stop-opacity="0.69"/>
<stop offset="1" stop-color="#8D39FB" stop-opacity="0"/>
</linearGradient>
<linearGradient id="paint6_linear_801_61" x1="733" y1="395" x2="733" y2="547" gradientUnits="userSpaceOnUse">
<stop stop-color="#747ABC"/>
<stop offset="1" stop-color="#FC8134"/>
</linearGradient>
<linearGradient id="paint7_linear_801_61" x1="283" y1="361" x2="283" y2="1371" gradientUnits="userSpaceOnUse">
<stop stop-color="#EC9155"/>
<stop offset="0.090862" stop-color="#EE5456"/>
<stop offset="0.187438" stop-color="#269FF6"/>
<stop offset="0.294704" stop-color="#269FF6" stop-opacity="0"/>
<stop offset="0.658814" stop-color="#3997E9" stop-opacity="0"/>
<stop offset="0.915826" stop-color="#2B9CF7"/>
<stop offset="1" stop-color="#2B9CF7" stop-opacity="0"/>
</linearGradient>
</defs>
</svg>
