<svg width="1440" height="543" viewBox="0 0 1440 543" fill="none" xmlns="http://www.w3.org/2000/svg">
<path fill-rule="evenodd" clip-rule="evenodd" d="M1026.32 10.3789V20.7578H1042.23H1058.15V10.3789V0L1042.23 0L1026.32 0V10.3789ZM1140.45 12.5599C1139.94 13.3791 1139.81 131.855 1140.14 275.838L1140.75 537.627L1156.9 538.017L1173.05 538.406V274.739V11.0708H1157.21C1147.4 11.0708 1141.02 11.6368 1140.45 12.5599ZM1218.31 23.0218C1217.78 23.5518 1217.34 28.8852 1217.34 34.8703V45.7543L1233.61 45.3655L1249.87 44.9752V33.9044V22.8336L1234.57 22.4447C1226.16 22.2316 1218.84 22.4904 1218.31 23.0218ZM1026.34 279.884L1026.37 525.172L1030.53 531.8L1034.69 538.425L1046.77 538.027L1058.85 537.627L1059.2 286.112L1059.54 34.5963H1042.93H1026.32L1026.34 279.884ZM1218.31 70.0728C1217.78 70.6028 1217.34 172.751 1217.34 297.068V523.096L1221.84 523.144C1224.31 523.17 1231.01 525.037 1236.72 527.291C1242.43 529.545 1247.88 531.391 1248.83 531.394C1250.19 531.398 1250.56 517.882 1250.56 468.414V405.427L1246.48 398.183C1241.07 388.594 1238.1 376.649 1238.14 364.701C1238.18 352.018 1239.95 344.669 1245.79 332.789L1250.58 323.076L1250.22 196.479L1249.87 69.8846L1234.57 69.4957C1226.16 69.2826 1218.84 69.5414 1218.31 70.0728ZM1065.86 77.338C1065.45 78.0133 1065.08 181.854 1065.06 308.096L1065.01 537.627L1080.96 538.017L1096.91 538.406V308.1C1096.91 99.3662 1096.71 77.713 1094.72 76.9519C1091.3 75.6387 1066.71 75.968 1065.86 77.338ZM1179.22 99.9834C1178.86 100.935 1178.72 199.794 1178.92 319.67L1179.27 537.627L1191.73 537.991L1204.19 538.355L1208 531.418L1211.8 524.479V311.366V98.2536H1195.84C1184.35 98.2536 1179.7 98.7379 1179.22 99.9834ZM680.256 144.568V175.749H696.893H713.53L713.158 144.959L712.785 114.168L696.521 113.778L680.256 113.389V144.568ZM988.523 124.043C987.992 124.573 987.557 169.914 987.557 224.799C987.557 313.948 987.792 324.926 989.768 327.745C994.834 334.977 998.875 348.13 999.612 359.802C1000.54 374.395 998.616 384.055 992.369 396.248L987.557 405.636V468.519C987.557 506.447 988.069 531.4 988.847 531.4C989.556 531.4 995.205 529.531 1001.4 527.248C1007.59 524.965 1014.49 523.096 1016.73 523.096H1020.79L1020.44 323.476L1020.09 123.855L1004.79 123.466C996.373 123.253 989.053 123.512 988.523 124.043ZM297.415 149.906C297.028 150.915 296.892 157.608 297.112 164.782L297.514 177.825H312.74H327.967L328.36 162.949L328.753 148.072H313.435C301.997 148.072 297.941 148.536 297.415 149.906ZM642.242 172.699C641.187 173.752 641.31 512.762 642.365 513.816C643.662 515.113 653.492 507.935 664.745 497.473L674.73 488.19L674.378 330.24L674.027 172.29L658.507 172.122C649.97 172.031 642.65 172.29 642.242 172.699ZM103.659 189.938C103.294 190.891 103.158 215.644 103.357 244.946C103.674 291.517 103.982 298.148 105.796 297.649C106.938 297.336 114.258 296.798 122.061 296.455L136.25 295.83V242.018V188.204H120.288C108.775 188.204 104.139 188.687 103.659 189.938ZM142.432 189.903C142.058 190.876 141.917 215.546 142.116 244.728L142.479 297.783L150.642 301.102C155.131 302.928 162.111 306.918 166.155 309.971C170.197 313.022 173.843 315.519 174.257 315.519C174.671 315.519 175.008 288.478 175.008 255.429V195.338L170.51 193.937C168.036 193.168 162.273 191.849 157.705 191.008C153.137 190.168 147.985 189.177 146.255 188.807C144.435 188.419 142.825 188.881 142.432 189.903ZM258.637 190.1C258.31 190.959 258.203 269.505 258.399 364.645L258.755 537.627H274.674H290.592V363.261V188.896L274.913 188.716C264.378 188.594 259.037 189.048 258.637 190.1ZM297.46 189.934C297.098 190.886 296.961 269.505 297.158 364.645L297.514 537.627L313.086 538.019L328.659 538.41V364.147C328.659 206.518 328.45 189.804 326.469 189.044C322.125 187.378 298.153 188.113 297.46 189.934ZM372.494 189.127C370.936 190.684 371.436 399.669 373.021 409.431C374.995 421.595 382.017 442.995 387.842 454.596C394.734 468.324 401.846 479.086 403.395 478.13C404.85 477.23 405.372 196.64 403.928 191.318C403.12 188.335 402.461 188.204 388.25 188.204C380.092 188.204 373 188.619 372.494 189.127ZM410.329 338.771V489.339L418.193 496.672C425.873 503.835 439.917 514.793 441.415 514.793C441.829 514.793 442.167 441.311 442.167 351.499V188.204H426.248H410.329V338.771ZM448.67 189.084C448.138 189.614 447.704 264.092 447.704 354.587V519.125L459.536 524.669C466.045 527.717 473.521 530.561 476.152 530.987L480.936 531.764L480.585 360.329L480.233 188.896L464.935 188.507C456.52 188.294 449.2 188.553 448.67 189.084ZM680.293 333.81L680.331 479.505L684.44 474.662C690.029 468.075 701.414 444.584 705.567 431.07C712.823 407.458 712.785 408.152 712.785 294.761V188.896L696.521 188.506L680.256 188.117L680.293 333.81ZM910.671 189.938C910.305 190.891 910.17 215.644 910.369 244.946C910.726 297.333 910.777 298.213 913.5 297.807C915.023 297.58 922.343 297.029 929.765 296.583L943.261 295.775V241.989V188.204H927.3C915.787 188.204 911.151 188.687 910.671 189.938ZM949.553 189.296C948.563 190.284 948.674 288.987 949.669 294.427C950.296 297.847 951.378 299.142 954.146 299.781C958.802 300.857 968.866 306.537 975.068 311.594C977.716 313.753 980.363 315.519 980.951 315.519C981.54 315.519 982.02 288.453 982.02 255.375V195.23L976.829 193.843C971.568 192.436 960.906 190.26 954.022 189.188C951.946 188.866 949.935 188.913 949.553 189.296ZM1294.54 241.994L1294.17 295.783L1308.01 296.619C1315.62 297.079 1323.1 297.627 1324.62 297.837C1327.34 298.215 1327.39 297.378 1327.56 244.25C1327.68 205.722 1327.28 189.989 1326.17 189.263C1325.32 188.704 1317.94 188.237 1309.77 188.225L1294.92 188.204L1294.54 241.994ZM92.6461 190.525C81.3216 193.041 67.547 196.864 66.657 197.737C65.7572 198.62 64.3702 326.589 65.2603 326.589C65.4236 326.589 69.784 322.385 74.9499 317.248C80.1145 312.11 87.2987 306.351 90.9158 304.449L97.4909 300.992V245.291C97.4909 214.654 97.023 189.66 96.4527 189.748C95.8824 189.837 94.1687 190.186 92.6461 190.525ZM899.658 190.559C893.951 191.575 874.701 196.968 873.699 197.831C872.617 198.764 872.037 326.423 873.109 327.494C873.443 327.828 875.586 325.558 877.873 322.45C882.417 316.273 897.217 303.804 901.694 302.384C903.239 301.894 904.516 300.757 904.533 299.857C905.002 275.156 904.158 191.506 903.434 190.903C902.879 190.443 901.18 190.288 899.658 190.559ZM1267.17 192.214L1256.79 194.574L1256.43 255.047C1256.23 288.306 1256.56 315.519 1257.15 315.519C1257.75 315.519 1260.52 313.638 1263.31 311.341C1269.07 306.593 1283.09 298.912 1286 298.912C1287.63 298.912 1287.94 290.153 1287.94 244.25V189.588L1282.75 189.722C1279.89 189.795 1272.88 190.918 1267.17 192.214ZM1333.6 193.739C1333.59 195.262 1333.56 220.016 1333.53 248.748L1333.48 300.988L1341.02 305.463C1345.17 307.925 1352.37 314.095 1357.02 319.172L1365.48 328.404L1365.12 262.835L1364.76 197.267L1353 194.193C1337.7 190.198 1333.62 190.103 1333.6 193.739ZM180.545 260.686V323.781L184.672 331.758C195.445 352.582 195.656 375.464 185.264 396.204L180.545 405.621V468.66V531.7L184.352 530.762C186.445 530.245 193.92 527.104 200.963 523.78L213.767 517.737V364.673V211.611L200.963 205.494C193.92 202.13 186.445 198.976 184.352 198.485L180.545 197.591V260.686ZM43.6121 207.633C36.439 211.44 29.7434 215.24 28.7316 216.079C27.2255 217.329 26.8947 244.148 26.8947 364.798V511.991L32.1589 515.314C40.852 520.799 57.3853 528.772 58.5619 528.045C59.1654 527.672 59.7994 496.67 59.9697 459.153C60.2285 401.701 59.9406 389.519 58.1411 381.943C55.4405 370.575 55.4238 358.808 58.0899 347.501C59.8147 340.182 60.1344 327.068 59.942 271.389C59.8147 234.39 59.4229 203.341 59.0727 202.389C58.1688 199.934 58.0428 199.976 43.6121 207.633ZM852.56 206.593C846.452 209.799 839.445 213.865 836.988 215.629L832.522 218.837V364.673V510.509L838.405 514.544C843.97 518.362 863.403 528.632 865.063 528.632C865.486 528.632 865.514 494.225 865.122 452.174C864.245 357.858 864.245 370.159 865.122 277.809C865.525 235.375 865.362 200.682 864.761 200.711C864.159 200.74 858.669 203.388 852.56 206.593ZM1372.98 279.192C1373.87 375.145 1373.87 357.812 1372.98 450.098C1372.57 493.291 1372.59 528.632 1373.03 528.632C1374.71 528.632 1394.1 518.397 1399.71 514.544L1405.6 510.509V364.622V218.733L1398.03 213.894C1388.07 207.525 1377.16 202.043 1374.44 202.043C1372.48 202.043 1372.34 209.641 1372.98 279.192ZM219.304 365.447V513.63L223.389 512.733C232.478 510.737 247.241 521.882 249.177 532.2C249.836 535.71 250.47 536.65 251.301 535.342C251.951 534.315 252.492 468.062 252.505 388.113L252.526 242.75L246.643 237.098C237.94 228.738 223.166 217.265 221.103 217.265C219.638 217.265 219.304 244.779 219.304 365.447ZM14.3009 226.386C11.7109 228.455 4.76483 235.095 -1.13618 241.142L-11.864 252.137V364.204V476.271L-6.74374 482.519C1.30146 492.335 18.8868 506.854 20.2088 504.773C21.6844 502.448 21.6401 226.771 20.1631 224.443C19.2689 223.034 17.9497 223.473 14.3009 226.386ZM815.777 231.556C810.14 236.37 803.038 243.36 799.993 247.087L794.456 253.862L794.069 363.783L793.683 473.705L797.448 479.137C801.414 484.858 820.054 502.88 824.423 505.217C826.909 506.547 826.985 502.35 826.985 364.694C826.985 286.653 826.769 222.8 826.505 222.8C826.241 222.8 821.412 226.74 815.777 231.556ZM1411.13 226.512C1411.13 228.657 1411.12 292.374 1411.09 368.105C1411.07 443.836 1411.38 505.642 1411.79 505.452C1412.19 505.263 1413.12 505.106 1413.86 505.106C1414.6 505.106 1421.46 498.957 1429.09 491.441L1442.97 477.774V364.878V251.98L1431.55 240.493C1425.27 234.176 1418.11 227.568 1415.63 225.809L1411.13 222.612V226.512ZM603.078 389.901L603.431 532.092L606.891 531.632C608.794 531.379 616.114 528.46 623.156 525.146L635.96 519.121V383.414V247.71H619.342H602.726L603.078 389.901ZM-24.7596 270.889C-43.1146 301.374 -50.9162 329.043 -50.9993 363.953C-51.0685 392.937 -46.2472 415.196 -34.5144 440.065C-28.3836 453.058 -20.3771 466.359 -18.6856 466.359C-17.9076 466.359 -17.401 426.239 -17.401 364.645C-17.401 303.051 -17.9076 262.932 -18.6856 262.932C-19.3915 262.932 -22.1254 266.514 -24.7596 270.889ZM778.793 277.13C760.646 309.879 753.369 342.44 756.295 377.802C758.517 404.643 763.701 423.145 775.294 445.601C789.544 473.204 788.16 481.773 788.196 365.683C788.213 309.931 787.702 264.316 787.06 264.316C786.419 264.316 782.698 270.082 778.793 277.13ZM1449.56 364.229C1449.36 419.259 1449.41 464.594 1449.67 464.975C1451.66 467.906 1467.34 439.142 1472.72 422.691C1480.29 399.521 1481.04 394.196 1481 363.953C1480.96 337.749 1480.68 334.529 1477.29 321.746C1475.28 314.135 1471.43 302.693 1468.74 296.319C1463.76 284.53 1453.72 266.515 1451.27 265.007C1450.41 264.472 1449.8 299.91 1449.56 364.229ZM589.253 399.845C584.216 405.504 579.244 409.337 572.988 412.383L563.98 416.771L564 477.198C564.013 510.434 564.485 538.355 565.051 539.245C565.83 540.468 569.117 540.345 578.502 538.742C585.333 537.577 592.334 536.085 594.062 535.429L597.201 534.237V462.933C597.201 423.716 597.046 391.644 596.855 391.662C596.664 391.68 593.244 395.363 589.253 399.845ZM486.7 463.444C486.415 507.79 486.743 534.177 487.585 534.697C489.049 535.602 504.464 538.867 513.801 540.248L519.684 541.12V479.036V416.954L510.512 412.3C504.554 409.277 499.099 405.088 494.939 400.347C491.419 396.334 488.227 393.042 487.846 393.034C487.466 393.024 486.951 424.71 486.7 463.444ZM65.9856 467.311L66.3455 531.92L77.4194 535.014C83.5101 536.716 90.5185 538.156 92.9921 538.214L97.4909 538.319V483.308V428.298L90.949 424.84C84.3282 421.342 68.4219 406.705 68.4219 404.111C68.4219 403.335 67.7934 402.701 67.0238 402.701C66.0977 402.701 65.7475 424.501 65.9856 467.311ZM872.655 403.047C872.07 423.817 872.899 530.759 873.651 531.411C874.674 532.299 892.267 537.212 900.696 538.964L904.503 539.755L904.501 484.029L904.5 428.303L897.4 424.316C890.367 420.366 875.434 406.572 875.434 404.024C875.434 402.93 872.686 401.964 872.655 403.047ZM1362.69 403.901C1362.69 406.395 1347.52 420.496 1340.74 424.305L1333.68 428.275L1333.3 480.183C1333.1 508.733 1333.12 533.759 1333.35 535.796C1333.75 539.209 1334.17 539.44 1338.64 538.713C1341.32 538.279 1348.29 536.545 1354.13 534.858L1364.76 531.793L1365.12 467.247C1365.36 424.48 1365.01 402.701 1364.08 402.701C1363.31 402.701 1362.69 403.241 1362.69 403.901ZM166.011 419.407C162.204 422.384 155.352 426.315 150.784 428.145L142.479 431.47L142.116 485.587L141.755 539.703H145.734C150.121 539.703 161.439 537.714 169.691 535.492L175.008 534.061V473.916C175.008 440.837 174.54 413.822 173.97 413.884C173.4 413.945 169.817 416.43 166.011 419.407ZM975.099 418.047C970.276 422.229 955.063 430.376 952.075 430.377C951.211 430.378 950.165 431.682 949.748 433.275C948.629 437.551 948.782 535.869 949.91 538.432C950.761 540.363 952.019 540.422 960.564 538.947C965.894 538.026 972.902 536.55 976.137 535.666L982.02 534.061V473.916C982.02 440.837 981.554 413.789 980.982 413.809C980.41 413.83 977.763 415.737 975.099 418.047ZM1256.1 473.931V534.09L1263.37 536.189C1267.36 537.343 1274.53 538.814 1279.29 539.458L1287.94 540.629V485.503C1287.94 442.333 1287.56 430.376 1286.21 430.365C1282.86 430.338 1269.3 423.268 1263.54 418.545C1260.33 415.92 1257.35 413.772 1256.91 413.772C1256.46 413.772 1256.1 440.843 1256.1 473.931ZM525.773 419.867C525.452 420.701 525.354 448.424 525.552 481.472L525.913 541.56L536.119 542.147C541.732 542.469 549.052 542.325 552.384 541.826L558.443 540.916V480.342C558.443 447.027 558.133 419.46 557.755 419.081C557.377 418.703 553.639 419.014 549.449 419.774C544.351 420.698 539.272 420.69 534.094 419.752C528.572 418.751 526.188 418.784 525.773 419.867ZM103.714 431.968C103.319 433.001 103.158 457.819 103.357 487.12L103.72 540.395L119.985 540.785L136.25 541.174V487.321V433.469L122.753 432.822C115.33 432.468 108.172 431.708 106.846 431.134C105.304 430.467 104.175 430.767 103.714 431.968ZM910.726 431.968C910.33 433.001 910.17 457.819 910.369 487.12L910.732 540.395L926.997 540.785L943.261 541.174V487.321V433.469L929.765 432.822C922.343 432.468 915.183 431.708 913.857 431.134C912.315 430.467 911.187 430.767 910.726 431.968ZM1322.54 431.842C1320.64 432.407 1313.62 432.932 1306.95 433.008L1294.83 433.146L1295.19 487.295L1295.55 541.444L1310.75 541.183C1320.72 541.012 1326.31 540.356 1327 539.274C1328.34 537.206 1328.32 432.042 1326.98 431.333C1326.44 431.048 1324.45 431.276 1322.54 431.842Z" fill="url(#paint0_linear_470_13)"/>
<defs>
<linearGradient id="paint0_linear_470_13" x1="714.875" y1="76.4551" x2="715" y2="542.319" gradientUnits="userSpaceOnUse">
<stop stop-color="#269FF6" stop-opacity="0"/>
<stop offset="1" stop-color="#269FF6" stop-opacity="0.37"/>
</linearGradient>
</defs>
</svg>
