<svg width="1532" height="543" viewBox="0 0 1532 543" fill="none" xmlns="http://www.w3.org/2000/svg">
<path fill-rule="evenodd" clip-rule="evenodd" d="M1077.32 10.3789V20.7578H1093.23H1109.15V10.3789V0L1093.23 0L1077.32 0V10.3789ZM1191.45 12.5599C1190.94 13.3791 1190.81 131.855 1191.14 275.838L1191.75 537.627L1207.9 538.017L1224.05 538.406V274.739V11.0708H1208.21C1198.4 11.0708 1192.02 11.6368 1191.45 12.5599ZM1269.31 23.0218C1268.78 23.5518 1268.34 28.8852 1268.34 34.8703V45.7543L1284.61 45.3655L1300.87 44.9752V33.9044V22.8336L1285.57 22.4447C1277.16 22.2316 1269.84 22.4904 1269.31 23.0218ZM1077.34 279.884L1077.37 525.172L1081.53 531.8L1085.69 538.425L1097.77 538.027L1109.85 537.627L1110.2 286.112L1110.54 34.5963H1093.93H1077.32L1077.34 279.884ZM1269.31 70.0728C1268.78 70.6028 1268.34 172.751 1268.34 297.068V523.096L1272.84 523.144C1275.31 523.17 1282.01 525.037 1287.72 527.291C1293.43 529.545 1298.88 531.391 1299.83 531.394C1301.19 531.398 1301.56 517.882 1301.56 468.414V405.427L1297.48 398.183C1292.07 388.594 1289.1 376.649 1289.14 364.701C1289.18 352.018 1290.95 344.669 1296.79 332.789L1301.58 323.076L1301.22 196.479L1300.87 69.8846L1285.57 69.4957C1277.16 69.2826 1269.84 69.5414 1269.31 70.0728ZM1116.86 77.338C1116.45 78.0133 1116.08 181.854 1116.06 308.096L1116.01 537.627L1131.96 538.017L1147.91 538.406V308.1C1147.91 99.3662 1147.71 77.713 1145.72 76.9519C1142.3 75.6387 1117.71 75.968 1116.86 77.338ZM1230.22 99.9834C1229.86 100.935 1229.72 199.794 1229.92 319.67L1230.27 537.627L1242.73 537.991L1255.19 538.355L1259 531.418L1262.8 524.479V311.366V98.2536H1246.84C1235.35 98.2536 1230.7 98.7379 1230.22 99.9834ZM731.256 144.568V175.749H747.893H764.53L764.158 144.959L763.785 114.168L747.521 113.778L731.256 113.389V144.568ZM1039.52 124.043C1038.99 124.573 1038.56 169.914 1038.56 224.799C1038.56 313.948 1038.79 324.926 1040.77 327.745C1045.83 334.977 1049.87 348.13 1050.61 359.802C1051.54 374.395 1049.62 384.055 1043.37 396.248L1038.56 405.636V468.519C1038.56 506.447 1039.07 531.4 1039.85 531.4C1040.56 531.4 1046.21 529.531 1052.4 527.248C1058.59 524.965 1065.49 523.096 1067.73 523.096H1071.79L1071.44 323.476L1071.09 123.855L1055.79 123.466C1047.37 123.253 1040.05 123.512 1039.52 124.043ZM348.415 149.906C348.028 150.915 347.892 157.608 348.112 164.782L348.514 177.825H363.74H378.967L379.36 162.949L379.753 148.072H364.435C352.997 148.072 348.941 148.536 348.415 149.906ZM693.242 172.699C692.187 173.752 692.31 512.762 693.365 513.816C694.662 515.113 704.492 507.935 715.745 497.473L725.73 488.19L725.378 330.24L725.027 172.29L709.507 172.122C700.97 172.031 693.65 172.29 693.242 172.699ZM154.659 189.938C154.294 190.891 154.158 215.644 154.357 244.946C154.674 291.517 154.982 298.148 156.796 297.649C157.938 297.336 165.258 296.798 173.061 296.455L187.25 295.83V242.018V188.204H171.288C159.775 188.204 155.139 188.687 154.659 189.938ZM193.432 189.903C193.058 190.876 192.917 215.546 193.116 244.728L193.479 297.783L201.642 301.102C206.131 302.928 213.111 306.918 217.155 309.971C221.197 313.022 224.843 315.519 225.257 315.519C225.671 315.519 226.008 288.478 226.008 255.429V195.338L221.51 193.937C219.036 193.168 213.273 191.849 208.705 191.008C204.137 190.168 198.985 189.177 197.255 188.807C195.435 188.419 193.825 188.881 193.432 189.903ZM309.637 190.1C309.31 190.959 309.203 269.505 309.399 364.645L309.755 537.627H325.674H341.592V363.261V188.896L325.913 188.716C315.378 188.594 310.037 189.048 309.637 190.1ZM348.46 189.934C348.098 190.886 347.961 269.505 348.158 364.645L348.514 537.627L364.086 538.019L379.659 538.41V364.147C379.659 206.518 379.45 189.804 377.469 189.044C373.125 187.378 349.153 188.113 348.46 189.934ZM423.494 189.127C421.936 190.684 422.436 399.669 424.021 409.431C425.995 421.595 433.017 442.995 438.842 454.596C445.734 468.324 452.846 479.086 454.395 478.13C455.85 477.23 456.372 196.64 454.928 191.318C454.12 188.335 453.461 188.204 439.25 188.204C431.092 188.204 424 188.619 423.494 189.127ZM461.329 338.771V489.339L469.193 496.672C476.873 503.835 490.917 514.793 492.415 514.793C492.829 514.793 493.167 441.311 493.167 351.499V188.204H477.248H461.329V338.771ZM499.67 189.084C499.138 189.614 498.704 264.092 498.704 354.587V519.125L510.536 524.669C517.045 527.717 524.521 530.561 527.152 530.987L531.936 531.764L531.585 360.329L531.233 188.896L515.935 188.507C507.52 188.294 500.2 188.553 499.67 189.084ZM731.293 333.81L731.331 479.505L735.44 474.662C741.029 468.075 752.414 444.584 756.567 431.07C763.823 407.458 763.785 408.152 763.785 294.761V188.896L747.521 188.506L731.256 188.117L731.293 333.81ZM961.671 189.938C961.305 190.891 961.17 215.644 961.369 244.946C961.726 297.333 961.777 298.213 964.5 297.807C966.023 297.58 973.343 297.029 980.765 296.583L994.261 295.775V241.989V188.204H978.3C966.787 188.204 962.151 188.687 961.671 189.938ZM1000.55 189.296C999.563 190.284 999.674 288.987 1000.67 294.427C1001.3 297.847 1002.38 299.142 1005.15 299.781C1009.8 300.857 1019.87 306.537 1026.07 311.594C1028.72 313.753 1031.36 315.519 1031.95 315.519C1032.54 315.519 1033.02 288.453 1033.02 255.375V195.23L1027.83 193.843C1022.57 192.436 1011.91 190.26 1005.02 189.188C1002.95 188.866 1000.93 188.913 1000.55 189.296ZM1345.54 241.994L1345.17 295.783L1359.01 296.619C1366.62 297.079 1374.1 297.627 1375.62 297.837C1378.34 298.215 1378.39 297.378 1378.56 244.25C1378.68 205.722 1378.28 189.989 1377.17 189.263C1376.32 188.704 1368.94 188.237 1360.77 188.225L1345.92 188.204L1345.54 241.994ZM143.646 190.525C132.322 193.041 118.547 196.864 117.657 197.737C116.757 198.62 115.37 326.589 116.26 326.589C116.424 326.589 120.784 322.385 125.95 317.248C131.115 312.11 138.299 306.351 141.916 304.449L148.491 300.992V245.291C148.491 214.654 148.023 189.66 147.453 189.748C146.882 189.837 145.169 190.186 143.646 190.525ZM950.658 190.559C944.951 191.575 925.701 196.968 924.699 197.831C923.617 198.764 923.037 326.423 924.109 327.494C924.443 327.828 926.586 325.558 928.873 322.45C933.417 316.273 948.217 303.804 952.694 302.384C954.239 301.894 955.516 300.757 955.533 299.857C956.002 275.156 955.158 191.506 954.434 190.903C953.879 190.443 952.18 190.288 950.658 190.559ZM1318.17 192.214L1307.79 194.574L1307.43 255.047C1307.23 288.306 1307.56 315.519 1308.15 315.519C1308.75 315.519 1311.52 313.638 1314.31 311.341C1320.07 306.593 1334.09 298.912 1337 298.912C1338.63 298.912 1338.94 290.153 1338.94 244.25V189.588L1333.75 189.722C1330.89 189.795 1323.88 190.918 1318.17 192.214ZM1384.6 193.739C1384.59 195.262 1384.56 220.016 1384.53 248.748L1384.48 300.988L1392.02 305.463C1396.17 307.925 1403.37 314.095 1408.02 319.172L1416.48 328.404L1416.12 262.835L1415.76 197.267L1404 194.193C1388.7 190.198 1384.62 190.103 1384.6 193.739ZM231.545 260.686V323.781L235.672 331.758C246.445 352.582 246.656 375.464 236.264 396.204L231.545 405.621V468.66V531.7L235.352 530.762C237.445 530.245 244.92 527.104 251.963 523.78L264.767 517.737V364.673V211.611L251.963 205.494C244.92 202.13 237.445 198.976 235.352 198.485L231.545 197.591V260.686ZM94.6121 207.633C87.439 211.44 80.7434 215.24 79.7316 216.079C78.2255 217.329 77.8947 244.148 77.8947 364.798V511.991L83.1589 515.314C91.852 520.799 108.385 528.772 109.562 528.045C110.165 527.672 110.799 496.67 110.97 459.153C111.229 401.701 110.941 389.519 109.141 381.943C106.44 370.575 106.424 358.808 109.09 347.501C110.815 340.182 111.134 327.068 110.942 271.389C110.815 234.39 110.423 203.341 110.073 202.389C109.169 199.934 109.043 199.976 94.6121 207.633ZM903.56 206.593C897.452 209.799 890.445 213.865 887.988 215.629L883.522 218.837V364.673V510.509L889.405 514.544C894.97 518.362 914.403 528.632 916.063 528.632C916.486 528.632 916.514 494.225 916.122 452.174C915.245 357.858 915.245 370.159 916.122 277.809C916.525 235.375 916.362 200.682 915.761 200.711C915.159 200.74 909.669 203.388 903.56 206.593ZM1423.98 279.192C1424.87 375.145 1424.87 357.812 1423.98 450.098C1423.57 493.291 1423.59 528.632 1424.03 528.632C1425.71 528.632 1445.1 518.397 1450.71 514.544L1456.6 510.509V364.622V218.733L1449.03 213.894C1439.07 207.525 1428.16 202.043 1425.44 202.043C1423.48 202.043 1423.34 209.641 1423.98 279.192ZM270.304 365.447V513.63L274.389 512.733C283.478 510.737 298.241 521.882 300.177 532.2C300.836 535.71 301.47 536.65 302.301 535.342C302.951 534.315 303.492 468.062 303.505 388.113L303.526 242.75L297.643 237.098C288.94 228.738 274.166 217.265 272.103 217.265C270.638 217.265 270.304 244.779 270.304 365.447ZM65.3009 226.386C62.7109 228.455 55.7648 235.095 49.8638 241.142L39.136 252.137V364.204V476.271L44.2563 482.519C52.3015 492.335 69.8868 506.854 71.2088 504.773C72.6844 502.448 72.6401 226.771 71.1631 224.443C70.2689 223.034 68.9497 223.473 65.3009 226.386ZM866.777 231.556C861.14 236.37 854.038 243.36 850.993 247.087L845.456 253.862L845.069 363.783L844.683 473.705L848.448 479.137C852.414 484.858 871.054 502.88 875.423 505.217C877.909 506.547 877.985 502.35 877.985 364.694C877.985 286.653 877.769 222.8 877.505 222.8C877.241 222.8 872.412 226.74 866.777 231.556ZM1462.13 226.512C1462.13 228.657 1462.12 292.374 1462.09 368.105C1462.07 443.836 1462.38 505.642 1462.79 505.452C1463.19 505.263 1464.12 505.106 1464.86 505.106C1465.6 505.106 1472.46 498.957 1480.09 491.441L1493.97 477.774V364.878V251.98L1482.55 240.493C1476.27 234.176 1469.11 227.568 1466.63 225.809L1462.13 222.612V226.512ZM654.078 389.901L654.431 532.092L657.891 531.632C659.794 531.379 667.114 528.46 674.156 525.146L686.96 519.121V383.414V247.71H670.342H653.726L654.078 389.901ZM26.2404 270.889C7.88536 301.374 0.0837883 329.043 0.000733916 363.953C-0.0684781 392.937 4.75283 415.196 16.4856 440.065C22.6164 453.058 30.6229 466.359 32.3144 466.359C33.0924 466.359 33.599 426.239 33.599 364.645C33.599 303.051 33.0924 262.932 32.3144 262.932C31.6085 262.932 28.8746 266.514 26.2404 270.889ZM829.793 277.13C811.646 309.879 804.369 342.44 807.295 377.802C809.517 404.643 814.701 423.145 826.294 445.601C840.544 473.204 839.16 481.773 839.196 365.683C839.213 309.931 838.702 264.316 838.06 264.316C837.419 264.316 833.698 270.082 829.793 277.13ZM1500.56 364.229C1500.36 419.259 1500.41 464.594 1500.67 464.975C1502.66 467.906 1518.34 439.142 1523.72 422.691C1531.29 399.521 1532.04 394.196 1532 363.953C1531.96 337.749 1531.68 334.529 1528.29 321.746C1526.28 314.135 1522.43 302.693 1519.74 296.319C1514.76 284.53 1504.72 266.515 1502.27 265.007C1501.41 264.472 1500.8 299.91 1500.56 364.229ZM640.253 399.845C635.216 405.504 630.244 409.337 623.988 412.383L614.98 416.771L615 477.198C615.013 510.434 615.485 538.355 616.051 539.245C616.83 540.468 620.117 540.345 629.502 538.742C636.333 537.577 643.334 536.085 645.062 535.429L648.201 534.237V462.933C648.201 423.716 648.046 391.644 647.855 391.662C647.664 391.68 644.244 395.363 640.253 399.845ZM537.7 463.444C537.415 507.79 537.743 534.177 538.585 534.697C540.049 535.602 555.464 538.867 564.801 540.248L570.684 541.12V479.036V416.954L561.512 412.3C555.554 409.277 550.099 405.088 545.939 400.347C542.419 396.334 539.227 393.042 538.846 393.034C538.466 393.024 537.951 424.71 537.7 463.444ZM116.986 467.311L117.346 531.92L128.419 535.014C134.51 536.716 141.518 538.156 143.992 538.214L148.491 538.319V483.308V428.298L141.949 424.84C135.328 421.342 119.422 406.705 119.422 404.111C119.422 403.335 118.793 402.701 118.024 402.701C117.098 402.701 116.748 424.501 116.986 467.311ZM923.655 403.047C923.07 423.817 923.899 530.759 924.651 531.411C925.674 532.299 943.267 537.212 951.696 538.964L955.503 539.755L955.501 484.029L955.5 428.303L948.4 424.316C941.367 420.366 926.434 406.572 926.434 404.024C926.434 402.93 923.686 401.964 923.655 403.047ZM1413.69 403.901C1413.69 406.395 1398.52 420.496 1391.74 424.305L1384.68 428.275L1384.3 480.183C1384.1 508.733 1384.12 533.759 1384.35 535.796C1384.75 539.209 1385.17 539.44 1389.64 538.713C1392.32 538.279 1399.29 536.545 1405.13 534.858L1415.76 531.793L1416.12 467.247C1416.36 424.48 1416.01 402.701 1415.08 402.701C1414.31 402.701 1413.69 403.241 1413.69 403.901ZM217.011 419.407C213.204 422.384 206.352 426.315 201.784 428.145L193.479 431.47L193.116 485.587L192.755 539.703H196.734C201.121 539.703 212.439 537.714 220.691 535.492L226.008 534.061V473.916C226.008 440.837 225.54 413.822 224.97 413.884C224.4 413.945 220.817 416.43 217.011 419.407ZM1026.1 418.047C1021.28 422.229 1006.06 430.376 1003.07 430.377C1002.21 430.378 1001.16 431.682 1000.75 433.275C999.629 437.551 999.782 535.869 1000.91 538.432C1001.76 540.363 1003.02 540.422 1011.56 538.947C1016.89 538.026 1023.9 536.55 1027.14 535.666L1033.02 534.061V473.916C1033.02 440.837 1032.55 413.789 1031.98 413.809C1031.41 413.83 1028.76 415.737 1026.1 418.047ZM1307.1 473.931V534.09L1314.37 536.189C1318.36 537.343 1325.53 538.814 1330.29 539.458L1338.94 540.629V485.503C1338.94 442.333 1338.56 430.376 1337.21 430.365C1333.86 430.338 1320.3 423.268 1314.54 418.545C1311.33 415.92 1308.35 413.772 1307.91 413.772C1307.46 413.772 1307.1 440.843 1307.1 473.931ZM576.773 419.867C576.452 420.701 576.354 448.424 576.552 481.472L576.913 541.56L587.119 542.147C592.732 542.469 600.052 542.325 603.384 541.826L609.443 540.916V480.342C609.443 447.027 609.133 419.46 608.755 419.081C608.377 418.703 604.639 419.014 600.449 419.774C595.351 420.698 590.272 420.69 585.094 419.752C579.572 418.751 577.188 418.784 576.773 419.867ZM154.714 431.968C154.319 433.001 154.158 457.819 154.357 487.12L154.72 540.395L170.985 540.785L187.25 541.174V487.321V433.469L173.753 432.822C166.33 432.468 159.172 431.708 157.846 431.134C156.304 430.467 155.175 430.767 154.714 431.968ZM961.726 431.968C961.33 433.001 961.17 457.819 961.369 487.12L961.732 540.395L977.997 540.785L994.261 541.174V487.321V433.469L980.765 432.822C973.343 432.468 966.183 431.708 964.857 431.134C963.315 430.467 962.187 430.767 961.726 431.968ZM1373.54 431.842C1371.64 432.407 1364.62 432.932 1357.95 433.008L1345.83 433.146L1346.19 487.295L1346.55 541.444L1361.75 541.183C1371.72 541.012 1377.31 540.356 1378 539.274C1379.34 537.206 1379.32 432.042 1377.98 431.333C1377.44 431.048 1375.45 431.276 1373.54 431.842Z" fill="url(#paint0_linear_470_13)"/>
<defs>
<linearGradient id="paint0_linear_470_13" x1="765.875" y1="76.4551" x2="766" y2="542.319" gradientUnits="userSpaceOnUse">
<stop stop-color="#269FF6" stop-opacity="0"/>
<stop offset="1" stop-color="#269FF6" stop-opacity="0.37"/>
</linearGradient>
</defs>
</svg>
