<svg width="208" height="347" viewBox="0 0 208 347" fill="none" xmlns="http://www.w3.org/2000/svg">
<g filter="url(#filter0_f_617_6)">
<path d="M61.3434 35C61.3434 35 62.3429 99 60.3431 128C60.1434 130.896 58.1907 133.793 55.8431 135.5C50.3431 139.5 48.3436 140.5 45.3431 143.5C42.0697 146.773 39.4634 149.909 37.8436 155C36.2238 160.091 35.8436 163.492 35.8436 168C35.8437 220.5 34.3439 240 35.3436 285C35.4464 289.628 36.7736 292.36 38.8438 296.5C40.8438 300.5 42.4997 302.825 45.8438 305.5C48.3438 307.5 54.8438 311.941 62.3434 311.5C93.9829 309.639 105.344 308 139.844 303.5C143.049 303.082 151.844 301.5 156.843 298.5C161.843 295.5 162.843 294.5 165.343 291C167.844 287.5 169.566 284.312 170.843 279.5C172.05 274.955 171.843 267.5 171.843 267.5C171.843 267.5 172.844 198 172.344 152C172.307 148.629 172.059 146.2 171 143C169.348 138.009 167.557 135.721 163.844 132C160.553 128.703 157.748 127.014 153.343 125.5C148.896 123.972 145.034 123.665 140.344 124C119.344 125.5 104.344 129.5 93.3434 129C91.4223 128.913 90.3069 128.248 88.8436 127C86.4431 124.953 85.8436 120.97 85.8436 118.5C85.8436 103.5 85.8434 95.7304 85.8434 80.5C85.8434 63.3169 85.8434 36.5 85.8434 36.5" stroke="url(#paint0_linear_617_6)" stroke-width="2"/>
</g>
<g filter="url(#filter1_f_617_6)">
<path d="M61.3434 35C61.3434 35 62.3429 99 60.3431 128C60.1434 130.896 58.1907 133.793 55.8431 135.5C50.3431 139.5 48.3436 140.5 45.3431 143.5C42.0697 146.773 39.4634 149.909 37.8436 155C36.2238 160.091 35.8436 163.492 35.8436 168C35.8437 220.5 34.3439 240 35.3436 285C35.4464 289.628 36.7736 292.36 38.8438 296.5C40.8438 300.5 42.4997 302.825 45.8438 305.5C48.3438 307.5 54.8438 311.941 62.3434 311.5C93.9829 309.639 105.344 308 139.844 303.5C143.049 303.082 151.844 301.5 156.843 298.5C161.843 295.5 162.843 294.5 165.343 291C167.844 287.5 169.566 284.312 170.843 279.5C172.05 274.955 171.843 267.5 171.843 267.5C171.843 267.5 172.844 198 172.344 152C172.307 148.629 172.059 146.2 171 143C169.348 138.009 167.557 135.721 163.844 132C160.553 128.703 157.748 127.014 153.343 125.5C148.896 123.972 145.034 123.665 140.344 124C119.344 125.5 104.344 129.5 93.3434 129C91.4223 128.913 90.3069 128.248 88.8436 127C86.4431 124.953 85.8436 120.97 85.8436 118.5C85.8436 103.5 85.8434 95.7304 85.8434 80.5C85.8434 63.3169 85.8434 36.5 85.8434 36.5" stroke="url(#paint1_linear_617_6)" stroke-width="2"/>
</g>
<g filter="url(#filter2_d_617_6)">
<path d="M61.3434 35C61.3434 35 62.3429 99 60.3431 128C60.1434 130.896 58.1907 133.793 55.8431 135.5C50.3431 139.5 48.3436 140.5 45.3431 143.5C42.0697 146.773 39.4634 149.909 37.8436 155C36.2238 160.091 35.8436 163.492 35.8436 168C35.8437 220.5 34.3439 240 35.3436 285C35.4464 289.628 36.7736 292.36 38.8438 296.5C40.8438 300.5 42.4997 302.825 45.8438 305.5C48.3438 307.5 54.8438 311.941 62.3434 311.5C93.9829 309.639 105.344 308 139.844 303.5C143.049 303.082 151.844 301.5 156.843 298.5C161.843 295.5 162.843 294.5 165.343 291C167.844 287.5 169.566 284.312 170.843 279.5C172.05 274.955 171.843 267.5 171.843 267.5C171.843 267.5 172.844 198 172.344 152C172.307 148.629 172.059 146.2 171 143C169.348 138.009 167.557 135.721 163.844 132C160.553 128.703 157.748 127.014 153.343 125.5C148.896 123.972 145.034 123.665 140.344 124C119.344 125.5 104.344 129.5 93.3434 129C91.4223 128.913 90.3069 128.248 88.8436 127C86.4431 124.953 85.8436 120.97 85.8436 118.5C85.8436 103.5 85.8434 95.7304 85.8434 80.5C85.8434 63.3169 85.8434 36.5 85.8434 36.5" stroke="url(#paint2_linear_617_6)" stroke-width="2" shape-rendering="crispEdges"/>
</g>
<defs>
<filter id="filter0_f_617_6" x="22" y="22.985" width="163.483" height="301.546" filterUnits="userSpaceOnUse" color-interpolation-filters="sRGB">
<feFlood flood-opacity="0" result="BackgroundImageFix"/>
<feBlend mode="normal" in="SourceGraphic" in2="BackgroundImageFix" result="shape"/>
<feGaussianBlur stdDeviation="6" result="effect1_foregroundBlur_617_6"/>
</filter>
<filter id="filter1_f_617_6" x="22" y="22.985" width="163.483" height="301.546" filterUnits="userSpaceOnUse" color-interpolation-filters="sRGB">
<feFlood flood-opacity="0" result="BackgroundImageFix"/>
<feBlend mode="normal" in="SourceGraphic" in2="BackgroundImageFix" result="shape"/>
<feGaussianBlur stdDeviation="6" result="effect1_foregroundBlur_617_6"/>
</filter>
<filter id="filter2_d_617_6" x="0" y="0.984985" width="207.483" height="345.546" filterUnits="userSpaceOnUse" color-interpolation-filters="sRGB">
<feFlood flood-opacity="0" result="BackgroundImageFix"/>
<feColorMatrix in="SourceAlpha" type="matrix" values="0 0 0 0 0 0 0 0 0 0 0 0 0 0 0 0 0 0 127 0" result="hardAlpha"/>
<feOffset/>
<feGaussianBlur stdDeviation="17"/>
<feComposite in2="hardAlpha" operator="out"/>
<feColorMatrix type="matrix" values="0 0 0 0 0.0901961 0 0 0 0 0.976471 0 0 0 0 0.870118 0 0 0 1 0"/>
<feBlend mode="normal" in2="BackgroundImageFix" result="effect1_dropShadow_617_6"/>
<feBlend mode="normal" in="SourceGraphic" in2="effect1_dropShadow_617_6" result="shape"/>
</filter>
<linearGradient id="paint0_linear_617_6" x1="103.742" y1="35" x2="103.742" y2="311.531" gradientUnits="userSpaceOnUse">
<stop stop-color="#17F9DE" stop-opacity="0"/>
<stop offset="0.411651" stop-color="#BD38FC"/>
<stop offset="0.64313" stop-color="#3007FF"/>
<stop offset="0.889414" stop-color="#17F9DE"/>
<stop offset="1" stop-color="#BD38FC"/>
</linearGradient>
<linearGradient id="paint1_linear_617_6" x1="103.742" y1="35" x2="103.742" y2="311.531" gradientUnits="userSpaceOnUse">
<stop stop-color="#17F9DE" stop-opacity="0"/>
<stop offset="0.411651" stop-color="#BD38FC"/>
<stop offset="0.64313" stop-color="#3007FF"/>
<stop offset="0.889414" stop-color="#17F9DE"/>
<stop offset="1" stop-color="#BD38FC"/>
</linearGradient>
<linearGradient id="paint2_linear_617_6" x1="103.742" y1="35" x2="103.742" y2="311.531" gradientUnits="userSpaceOnUse">
<stop stop-color="#17F9DE" stop-opacity="0"/>
<stop offset="0.411651" stop-color="#BD38FC"/>
<stop offset="0.64313" stop-color="#3007FF"/>
<stop offset="0.889414" stop-color="#17F9DE"/>
<stop offset="1" stop-color="#BD38FC"/>
</linearGradient>
</defs>
</svg>
